<svg xmlns="http://www.w3.org/2000/svg" viewBox="0 0 230 210" role="img" aria-label="Equilibria mark" fill="none" stroke-linecap="round" stroke-linejoin="round">
    <path d="M 201.31 34.62 C 200.92 34.37, 200.52 34.14, 200.11 33.93 C 199.70 33.72, 199.28 33.52, 198.85 33.34 C 198.42 33.16, 197.97 33.00, 197.52 32.86 C 197.07 32.72, 196.60 32.59, 196.13 32.49 C 195.66 32.39, 195.17 32.31, 194.67 32.24 C 194.17 32.17, 193.66 32.12, 193.15 32.09 C 192.64 32.06, 192.11 32.05, 191.58 32.06 C 191.05 32.07, 190.50 32.10, 189.95 32.15 C 189.40 32.20, 188.84 32.26, 188.27 32.34 C 187.70 32.42, 187.12 32.53, 186.53 32.65 C 185.94 32.77, 185.35 32.90, 184.75 33.06 C 184.15 33.22, 183.55 33.40, 182.93 33.59 C 182.31 33.79, 181.69 34.00, 181.06 34.23 C 180.43 34.46, 179.79 34.71, 179.15 34.98 C 178.51 35.25, 177.86 35.54, 177.21 35.84 C 176.56 36.14, 175.89 36.46, 175.23 36.8 C 174.56 37.14, 173.89 37.50, 173.22 37.87 C 172.55 38.24, 171.87 38.63, 171.19 39.04 C 170.51 39.45, 169.82 39.87, 169.13 40.31 C 168.44 40.75, 167.75 41.20, 167.05 41.68 C 166.35 42.16, 165.65 42.65, 164.95 43.16 C 164.25 43.67, 163.55 44.18, 162.84 44.72 C 162.13 45.26, 161.43 45.81, 160.72 46.38 C 160.01 46.95, 159.30 47.53, 158.59 48.13 C 157.88 48.73, 157.17 49.34, 156.46 49.97 C 155.75 50.60, 155.03 51.24, 154.32 51.89 C 153.61 52.54, 152.90 53.21, 152.19 53.89 C 151.48 54.57, 150.77 55.26, 150.06 55.97 C 149.35 56.68, 148.64 57.40, 147.94 58.13 C 147.24 58.86, 146.53 59.61, 145.83 60.36 C 145.13 61.11, 144.42 61.88, 143.73 62.66 C 143.03 63.44, 142.35 64.23, 141.66 65.03 C 140.97 65.83, 140.28 66.63, 139.6 67.45 C 138.92 68.27, 138.25 69.09, 137.58 69.93 C 136.91 70.77, 136.23 71.61, 135.57 72.47 C 134.91 73.33, 134.25 74.19, 133.6 75.06 C 132.95 75.93, 132.31 76.81, 131.67 77.7 C 131.03 78.59, 130.40 79.47, 129.77 80.37 C 129.14 81.27, 128.52 82.18, 127.91 83.09 C 127.30 84.00, 126.69 84.91, 126.09 85.83 C 125.49 86.75, 124.90 87.68, 124.32 88.61 C 123.74 89.54, 123.17 90.48, 122.6 91.42 C 122.03 92.36, 121.47 93.30, 120.92 94.24 C 120.37 95.18, 119.83 96.13, 119.3 97.08 C 118.77 98.03, 118.25 98.98, 117.74 99.93 C 117.23 100.88, 116.73 101.84, 116.24 102.79 C 115.75 103.75, 115.26 104.70, 114.79 105.66 C 114.32 106.61, 113.86 107.57, 113.41 108.52 C 112.96 109.47, 112.53 110.43, 112.1 111.38 C 111.67 112.33, 111.25 113.27, 110.85 114.22 C 110.44 115.17, 110.05 116.12, 109.67 117.06 C 109.29 118.00, 108.92 118.94, 108.56 119.87 C 108.20 120.81, 107.85 121.74, 107.52 122.67 C 107.19 123.60, 106.87 124.52, 106.56 125.43 C 106.25 126.34, 105.95 127.25, 105.67 128.16 C 105.39 129.06, 105.12 129.97, 104.86 130.86 C 104.60 131.75, 104.36 132.64, 104.13 133.52 C 103.90 134.40, 103.68 135.27, 103.48 136.13 C 103.28 136.99, 103.09 137.85, 102.91 138.7 C 102.73 139.55, 102.57 140.38, 102.42 141.21 C 102.27 142.04, 102.13 142.86, 102.01 143.67 C 101.89 144.48, 101.78 145.28, 101.68 146.07 C 101.59 146.86, 101.51 147.63, 101.44 148.4 C 101.37 149.17, 101.32 149.92, 101.28 150.67 C 101.24 151.41, 101.22 152.15, 101.21 152.87 C 101.20 153.59, 101.20 154.30, 101.22 154.99 C 101.24 155.69, 101.27 156.37, 101.31 157.04 C 101.35 157.71, 101.41 158.36, 101.48 159 C 101.55 159.64, 101.64 160.28, 101.74 160.89 C 101.84 161.50, 101.96 162.10, 102.09 162.68 C 102.22 163.26, 102.36 163.83, 102.51 164.39 C 102.67 164.94, 102.84 165.49, 103.02 166.01 C 103.20 166.53, 103.40 167.04, 103.61 167.53 C 103.82 168.02, 104.03 168.50, 104.27 168.96 C 104.50 169.42, 104.76 169.86, 105.02 170.28 C 105.28 170.70, 105.56 171.12, 105.85 171.51 C 106.14 171.90, 106.44 172.28, 106.75 172.64 C 107.06 173.00, 107.39 173.34, 107.73 173.66 C 108.07 173.98, 108.42 174.28, 108.78 174.57 C 109.14 174.86, 109.52 175.13, 109.9 175.38 C 110.29 175.63, 110.68 175.86, 111.09 176.07 C 111.50 176.28, 111.93 176.48, 112.36 176.66 C 112.79 176.84, 113.24 177.00, 113.69 177.14 C 114.14 177.28, 114.60 177.41, 115.08 177.51 C 115.56 177.61, 116.05 177.69, 116.54 177.76 C 117.04 177.83, 117.53 177.88, 118.05 177.91 C 118.56 177.94, 119.09 177.95, 119.63 177.94 C 120.16 177.93, 120.71 177.90, 121.26 177.85 C 121.81 177.80, 122.37 177.74, 122.94 177.66 C 123.51 177.58, 124.09 177.47, 124.67 177.35 C 125.25 177.23, 125.85 177.10, 126.45 176.94 C 127.05 176.78, 127.66 176.60, 128.28 176.41 C 128.90 176.22, 129.52 176.00, 130.15 175.77 C 130.78 175.54, 131.42 175.29, 132.06 175.02 C 132.70 174.75, 133.35 174.46, 134 174.16 C 134.65 173.86, 135.32 173.54, 135.98 173.2 C 136.64 172.86, 137.31 172.50, 137.98 172.13 C 138.65 171.76, 139.34 171.37, 140.02 170.96 C 140.70 170.55, 141.39 170.13, 142.08 169.69 C 142.77 169.25, 143.47 168.79, 144.16 168.32 C 144.85 167.84, 145.55 167.35, 146.25 166.84 C 146.95 166.33, 147.65 165.82, 148.36 165.28 C 149.07 164.74, 149.78 164.19, 150.49 163.62 C 151.20 163.05, 151.91 162.47, 152.62 161.87 C 153.33 161.27, 154.04 160.66, 154.75 160.03 C 155.46 159.40, 156.18 158.76, 156.89 158.11 C 157.60 157.46, 158.31 156.79, 159.02 156.11 C 159.73 155.43, 160.44 154.74, 161.15 154.03 C 161.86 153.32, 162.56 152.60, 163.27 151.87 C 163.98 151.14, 164.68 150.39, 165.38 149.64 C 166.08 148.88, 166.78 148.12, 167.47 147.34 C 168.16 146.56, 168.86 145.77, 169.55 144.97 C 170.24 144.17, 170.92 143.37, 171.6 142.55 C 172.28 141.73, 172.96 140.91, 173.63 140.07 C 174.30 139.23, 174.97 138.38, 175.63 137.53 C 176.29 136.68, 176.95 135.81, 177.6 134.94 C 178.25 134.07, 178.90 133.19, 179.54 132.3 C 180.18 131.42, 180.81 130.53, 181.44 129.63 C 182.07 128.73, 182.69 127.82, 183.3 126.91 C 183.91 126.00, 184.52 125.09, 185.12 124.17 C 185.72 123.25, 186.31 122.32, 186.89 121.39 C 187.47 120.46, 188.05 119.52, 188.61 118.58 C 189.18 117.64, 189.73 116.70, 190.28 115.76 C 190.83 114.82, 191.37 113.87, 191.9 112.92 C 192.43 111.97, 192.95 111.02, 193.46 110.07 C 193.97 109.12, 194.48 108.16, 194.97 107.21 C 195.46 106.25, 195.94 105.30, 196.41 104.34 C 196.88 103.39, 197.34 102.43, 197.79 101.48 C 198.24 100.53, 198.68 99.57, 199.11 98.62 C 199.54 97.67, 199.96 96.73, 200.36 95.78 C 200.77 94.83, 201.16 93.88, 201.54 92.94 C 201.92 92.00, 202.29 91.06, 202.65 90.13 C 203.01 89.19, 203.35 88.26, 203.68 87.33 C 204.01 86.40, 204.34 85.48, 204.65 84.57 C 204.96 83.66, 205.25 82.75, 205.53 81.84 C 205.81 80.94, 206.08 80.03, 206.34 79.14 C 206.60 78.25, 206.84 77.36, 207.07 76.48 C 207.30 75.60, 207.52 74.73, 207.73 73.87 C 207.94 73.01, 208.12 72.15, 208.3 71.3 C 208.48 70.45, 208.64 69.62, 208.79 68.79 C 208.94 67.96, 209.08 67.14, 209.2 66.33 C 209.32 65.52, 209.43 64.72, 209.52 63.93 C 209.62 63.14, 209.70 62.37, 209.77 61.6 C 209.84 60.83, 209.88 60.07, 209.92 59.33 C 209.96 58.59, 209.99 57.85, 210 57.13 C 210.01 56.41, 210.01 55.70, 209.99 55.01 C 209.97 54.31, 209.94 53.63, 209.9 52.96 C 209.86 52.29, 209.79 51.64, 209.72 51 C 209.65 50.36, 209.56 49.72, 209.46 49.11 C 209.36 48.50, 209.25 47.90, 209.12 47.32 C 208.99 46.74, 208.85 46.16, 208.7 45.61 C 208.54 45.05, 208.37 44.51, 208.19 43.99 C 208.01 43.47, 207.81 42.96, 207.6 42.47 C 207.39 41.98, 207.17 41.50, 206.93 41.04 C 206.69 40.58, 206.45 40.14, 206.19 39.72 C 205.93 39.30, 205.65 38.88, 205.36 38.49 C 205.07 38.10, 204.77 37.72, 204.46 37.36 C 204.15 37.00, 203.82 36.66, 203.48 36.34 C 203.14 36.02, 202.79 35.72, 202.43 35.43 C 202.07 35.14, 201.70 34.87, 201.31 34.62 Z" stroke="#4AB3F4" stroke-width="5"/><path d="M 28.69 34.62 C 29.08 34.37, 29.48 34.14, 29.89 33.93 C 30.30 33.72, 30.72 33.52, 31.15 33.34 C 31.58 33.16, 32.03 33.00, 32.48 32.86 C 32.93 32.72, 33.39 32.59, 33.87 32.49 C 34.34 32.39, 34.83 32.31, 35.33 32.24 C 35.83 32.17, 36.34 32.12, 36.85 32.09 C 37.37 32.06, 37.89 32.05, 38.42 32.06 C 38.95 32.07, 39.50 32.10, 40.05 32.15 C 40.60 32.20, 41.16 32.26, 41.73 32.34 C 42.30 32.42, 42.88 32.53, 43.47 32.65 C 44.06 32.77, 44.65 32.90, 45.25 33.06 C 45.85 33.22, 46.45 33.40, 47.07 33.59 C 47.69 33.79, 48.31 34.00, 48.94 34.23 C 49.57 34.46, 50.21 34.71, 50.85 34.98 C 51.49 35.25, 52.14 35.54, 52.79 35.84 C 53.44 36.14, 54.11 36.46, 54.77 36.8 C 55.44 37.14, 56.11 37.50, 56.78 37.87 C 57.45 38.24, 58.13 38.63, 58.81 39.04 C 59.49 39.45, 60.18 39.87, 60.87 40.31 C 61.56 40.75, 62.25 41.20, 62.95 41.68 C 63.65 42.16, 64.35 42.65, 65.05 43.16 C 65.75 43.67, 66.45 44.18, 67.16 44.72 C 67.86 45.26, 68.57 45.81, 69.28 46.38 C 69.99 46.95, 70.70 47.53, 71.41 48.13 C 72.12 48.73, 72.83 49.34, 73.54 49.97 C 74.25 50.60, 74.97 51.24, 75.68 51.89 C 76.39 52.54, 77.10 53.21, 77.81 53.89 C 78.52 54.57, 79.23 55.26, 79.94 55.97 C 80.65 56.68, 81.36 57.40, 82.06 58.13 C 82.77 58.86, 83.47 59.61, 84.17 60.36 C 84.87 61.11, 85.57 61.88, 86.27 62.66 C 86.97 63.44, 87.65 64.23, 88.34 65.03 C 89.03 65.83, 89.72 66.63, 90.4 67.45 C 91.08 68.27, 91.75 69.09, 92.42 69.93 C 93.09 70.77, 93.77 71.61, 94.43 72.47 C 95.09 73.33, 95.75 74.19, 96.4 75.06 C 97.05 75.93, 97.69 76.81, 98.33 77.7 C 98.97 78.59, 99.60 79.47, 100.23 80.37 C 100.86 81.27, 101.48 82.18, 102.09 83.09 C 102.70 84.00, 103.31 84.91, 103.91 85.83 C 104.51 86.75, 105.10 87.68, 105.68 88.61 C 106.26 89.54, 106.83 90.48, 107.4 91.42 C 107.97 92.36, 108.53 93.30, 109.08 94.24 C 109.63 95.18, 110.17 96.13, 110.7 97.08 C 111.23 98.03, 111.75 98.98, 112.26 99.93 C 112.77 100.88, 113.27 101.84, 113.76 102.79 C 114.25 103.75, 114.74 104.70, 115.21 105.66 C 115.68 106.61, 116.14 107.57, 116.59 108.52 C 117.04 109.47, 117.47 110.43, 117.9 111.38 C 118.33 112.33, 118.75 113.27, 119.15 114.22 C 119.56 115.17, 119.95 116.12, 120.33 117.06 C 120.71 118.00, 121.08 118.94, 121.44 119.87 C 121.80 120.81, 122.15 121.74, 122.48 122.67 C 122.81 123.60, 123.13 124.52, 123.44 125.43 C 123.75 126.34, 124.05 127.25, 124.33 128.16 C 124.61 129.06, 124.88 129.97, 125.14 130.86 C 125.40 131.75, 125.64 132.64, 125.87 133.52 C 126.10 134.40, 126.32 135.27, 126.52 136.13 C 126.72 136.99, 126.91 137.85, 127.09 138.7 C 127.27 139.55, 127.43 140.38, 127.58 141.21 C 127.73 142.04, 127.87 142.86, 127.99 143.67 C 128.11 144.48, 128.22 145.28, 128.32 146.07 C 128.41 146.86, 128.49 147.63, 128.56 148.4 C 128.63 149.17, 128.68 149.92, 128.72 150.67 C 128.76 151.41, 128.78 152.15, 128.79 152.87 C 128.80 153.59, 128.80 154.30, 128.78 154.99 C 128.76 155.69, 128.73 156.37, 128.69 157.04 C 128.65 157.71, 128.59 158.36, 128.52 159 C 128.45 159.64, 128.36 160.28, 128.26 160.89 C 128.16 161.50, 128.04 162.10, 127.91 162.68 C 127.78 163.26, 127.64 163.83, 127.49 164.39 C 127.33 164.94, 127.16 165.49, 126.98 166.01 C 126.80 166.53, 126.60 167.04, 126.39 167.53 C 126.18 168.02, 125.97 168.50, 125.73 168.96 C 125.50 169.42, 125.24 169.86, 124.98 170.28 C 124.72 170.70, 124.44 171.12, 124.15 171.51 C 123.86 171.90, 123.56 172.28, 123.25 172.64 C 122.94 173.00, 122.61 173.34, 122.27 173.66 C 121.93 173.98, 121.58 174.28, 121.22 174.57 C 120.86 174.86, 120.48 175.13, 120.1 175.38 C 119.71 175.63, 119.32 175.86, 118.91 176.07 C 118.50 176.28, 118.07 176.48, 117.64 176.66 C 117.21 176.84, 116.76 177.00, 116.31 177.14 C 115.86 177.28, 115.40 177.41, 114.92 177.51 C 114.44 177.61, 113.95 177.69, 113.46 177.76 C 112.96 177.83, 112.47 177.88, 111.95 177.91 C 111.44 177.94, 110.91 177.95, 110.37 177.94 C 109.84 177.93, 109.29 177.90, 108.74 177.85 C 108.19 177.80, 107.63 177.74, 107.06 177.66 C 106.49 177.58, 105.91 177.47, 105.33 177.35 C 104.75 177.23, 104.15 177.10, 103.55 176.94 C 102.95 176.78, 102.34 176.60, 101.72 176.41 C 101.10 176.22, 100.48 176.00, 99.85 175.77 C 99.22 175.54, 98.58 175.29, 97.94 175.02 C 97.30 174.75, 96.65 174.46, 96 174.16 C 95.35 173.86, 94.68 173.54, 94.02 173.2 C 93.36 172.86, 92.69 172.50, 92.02 172.13 C 91.35 171.76, 90.66 171.37, 89.98 170.96 C 89.30 170.55, 88.61 170.13, 87.92 169.69 C 87.23 169.25, 86.53 168.79, 85.84 168.32 C 85.15 167.84, 84.45 167.35, 83.75 166.84 C 83.05 166.33, 82.35 165.82, 81.64 165.28 C 80.93 164.74, 80.22 164.19, 79.51 163.62 C 78.80 163.05, 78.09 162.47, 77.38 161.87 C 76.67 161.27, 75.96 160.66, 75.25 160.03 C 74.54 159.40, 73.82 158.76, 73.11 158.11 C 72.40 157.46, 71.69 156.79, 70.98 156.11 C 70.27 155.43, 69.56 154.74, 68.85 154.03 C 68.14 153.32, 67.44 152.60, 66.73 151.87 C 66.03 151.14, 65.32 150.39, 64.62 149.64 C 63.92 148.88, 63.23 148.12, 62.53 147.34 C 61.84 146.56, 61.14 145.77, 60.45 144.97 C 59.76 144.17, 59.08 143.37, 58.4 142.55 C 57.72 141.73, 57.04 140.91, 56.37 140.07 C 55.70 139.23, 55.03 138.38, 54.37 137.53 C 53.71 136.68, 53.05 135.81, 52.4 134.94 C 51.75 134.07, 51.10 133.19, 50.46 132.3 C 49.82 131.42, 49.19 130.53, 48.56 129.63 C 47.93 128.73, 47.31 127.82, 46.7 126.91 C 46.09 126.00, 45.48 125.09, 44.88 124.17 C 44.28 123.25, 43.69 122.32, 43.11 121.39 C 42.53 120.46, 41.95 119.52, 41.39 118.58 C 40.83 117.64, 40.27 116.70, 39.72 115.76 C 39.17 114.82, 38.63 113.87, 38.1 112.92 C 37.57 111.97, 37.05 111.02, 36.54 110.07 C 36.03 109.12, 35.52 108.16, 35.03 107.21 C 34.54 106.25, 34.06 105.30, 33.59 104.34 C 33.12 103.39, 32.66 102.43, 32.21 101.48 C 31.76 100.53, 31.32 99.57, 30.89 98.62 C 30.46 97.67, 30.05 96.73, 29.64 95.78 C 29.23 94.83, 28.84 93.88, 28.46 92.94 C 28.08 92.00, 27.71 91.06, 27.35 90.13 C 26.99 89.19, 26.65 88.26, 26.32 87.33 C 25.99 86.40, 25.66 85.48, 25.35 84.57 C 25.04 83.66, 24.75 82.75, 24.47 81.84 C 24.19 80.94, 23.92 80.03, 23.66 79.14 C 23.40 78.25, 23.16 77.36, 22.93 76.48 C 22.70 75.60, 22.48 74.73, 22.27 73.87 C 22.06 73.01, 21.88 72.15, 21.7 71.3 C 21.52 70.45, 21.36 69.62, 21.21 68.79 C 21.06 67.96, 20.92 67.14, 20.8 66.33 C 20.68 65.52, 20.57 64.72, 20.48 63.93 C 20.39 63.14, 20.30 62.37, 20.23 61.6 C 20.16 60.83, 20.12 60.07, 20.08 59.33 C 20.04 58.59, 20.01 57.85, 20 57.13 C 19.99 56.41, 19.99 55.70, 20.01 55.01 C 20.03 54.31, 20.05 53.63, 20.1 52.96 C 20.15 52.29, 20.21 51.64, 20.28 51 C 20.35 50.36, 20.44 49.72, 20.54 49.11 C 20.64 48.50, 20.75 47.90, 20.88 47.32 C 21.01 46.74, 21.14 46.16, 21.3 45.61 C 21.46 45.05, 21.63 44.51, 21.81 43.99 C 21.99 43.47, 22.19 42.96, 22.4 42.47 C 22.61 41.98, 22.84 41.50, 23.07 41.04 C 23.30 40.58, 23.55 40.14, 23.81 39.72 C 24.07 39.30, 24.35 38.88, 24.64 38.49 C 24.93 38.10, 25.23 37.72, 25.54 37.36 C 25.85 37.00, 26.18 36.66, 26.52 36.34 C 26.86 36.02, 27.21 35.72, 27.57 35.43 C 27.93 35.14, 28.30 34.87, 28.69 34.62 Z" stroke="#4AB3F4" stroke-width="5"/><path d="M 190.34 51.51 C 190.05 51.32, 189.74 51.14, 189.43 50.98 C 189.12 50.82, 188.80 50.67, 188.47 50.54 C 188.14 50.41, 187.81 50.28, 187.46 50.17 C 187.12 50.06, 186.76 49.97, 186.4 49.89 C 186.04 49.81, 185.67 49.75, 185.29 49.7 C 184.91 49.65, 184.53 49.61, 184.14 49.59 C 183.75 49.57, 183.35 49.56, 182.95 49.57 C 182.54 49.58, 182.13 49.59, 181.71 49.63 C 181.29 49.67, 180.86 49.72, 180.43 49.78 C 180.00 49.84, 179.56 49.92, 179.11 50.01 C 178.67 50.10, 178.22 50.21, 177.76 50.33 C 177.30 50.45, 176.84 50.58, 176.37 50.73 C 175.90 50.88, 175.43 51.04, 174.95 51.22 C 174.47 51.40, 173.99 51.59, 173.5 51.79 C 173.01 51.99, 172.52 52.21, 172.02 52.44 C 171.52 52.67, 171.03 52.91, 170.52 53.17 C 170.02 53.43, 169.50 53.70, 168.99 53.98 C 168.48 54.26, 167.97 54.56, 167.45 54.87 C 166.93 55.18, 166.41 55.51, 165.88 55.84 C 165.35 56.18, 164.83 56.52, 164.3 56.88 C 163.77 57.24, 163.24 57.62, 162.71 58 C 162.18 58.38, 161.65 58.78, 161.11 59.19 C 160.57 59.60, 160.03 60.02, 159.49 60.45 C 158.95 60.88, 158.41 61.33, 157.87 61.78 C 157.33 62.23, 156.79 62.70, 156.25 63.17 C 155.71 63.65, 155.17 64.13, 154.63 64.63 C 154.09 65.13, 153.55 65.64, 153.01 66.16 C 152.47 66.68, 151.93 67.20, 151.39 67.74 C 150.85 68.28, 150.32 68.82, 149.78 69.38 C 149.24 69.94, 148.70 70.50, 148.17 71.07 C 147.64 71.64, 147.11 72.23, 146.58 72.82 C 146.05 73.41, 145.53 74.01, 145.01 74.62 C 144.49 75.23, 143.96 75.84, 143.44 76.46 C 142.92 77.08, 142.41 77.71, 141.9 78.35 C 141.39 78.99, 140.88 79.63, 140.38 80.28 C 139.88 80.93, 139.38 81.59, 138.88 82.25 C 138.38 82.91, 137.89 83.58, 137.41 84.25 C 136.93 84.92, 136.45 85.60, 135.97 86.28 C 135.49 86.96, 135.02 87.66, 134.55 88.35 C 134.08 89.04, 133.62 89.73, 133.17 90.43 C 132.72 91.13, 132.27 91.84, 131.83 92.55 C 131.39 93.26, 130.95 93.97, 130.52 94.68 C 130.09 95.39, 129.67 96.10, 129.25 96.82 C 128.83 97.54, 128.42 98.26, 128.02 98.98 C 127.62 99.70, 127.22 100.43, 126.83 101.15 C 126.44 101.87, 126.06 102.59, 125.69 103.32 C 125.32 104.04, 124.95 104.77, 124.59 105.5 C 124.23 106.23, 123.88 106.96, 123.54 107.68 C 123.20 108.41, 122.87 109.13, 122.54 109.85 C 122.22 110.57, 121.90 111.29, 121.59 112.01 C 121.28 112.73, 120.98 113.44, 120.69 114.16 C 120.40 114.88, 120.12 115.59, 119.85 116.3 C 119.58 117.01, 119.31 117.73, 119.06 118.43 C 118.81 119.14, 118.56 119.84, 118.33 120.53 C 118.10 121.22, 117.88 121.91, 117.66 122.6 C 117.44 123.29, 117.24 123.97, 117.04 124.65 C 116.84 125.33, 116.66 126.00, 116.49 126.67 C 116.31 127.34, 116.14 128.00, 115.99 128.66 C 115.83 129.32, 115.69 129.97, 115.56 130.61 C 115.43 131.25, 115.30 131.89, 115.18 132.52 C 115.07 133.15, 114.96 133.77, 114.87 134.39 C 114.78 135.00, 114.69 135.61, 114.62 136.21 C 114.55 136.81, 114.49 137.41, 114.44 137.99 C 114.39 138.57, 114.35 139.15, 114.32 139.71 C 114.29 140.28, 114.27 140.83, 114.26 141.38 C 114.25 141.93, 114.26 142.46, 114.27 142.99 C 114.28 143.52, 114.31 144.04, 114.34 144.55 C 114.37 145.06, 114.41 145.55, 114.47 146.04 C 114.53 146.53, 114.59 147.00, 114.67 147.47 C 114.75 147.94, 114.83 148.40, 114.93 148.84 C 115.03 149.28, 115.13 149.72, 115.25 150.14 C 115.37 150.56, 115.50 150.97, 115.64 151.37 C 115.78 151.77, 115.93 152.15, 116.09 152.52 C 116.25 152.89, 116.41 153.26, 116.59 153.61 C 116.77 153.96, 116.96 154.30, 117.16 154.62 C 117.36 154.94, 117.57 155.25, 117.79 155.55 C 118.01 155.85, 118.23 156.13, 118.47 156.4 C 118.71 156.67, 118.96 156.94, 119.22 157.18 C 119.48 157.43, 119.74 157.65, 120.02 157.87 C 120.30 158.09, 120.58 158.30, 120.87 158.49 C 121.16 158.68, 121.47 158.86, 121.78 159.02 C 122.09 159.18, 122.41 159.33, 122.74 159.46 C 123.07 159.59, 123.41 159.72, 123.75 159.83 C 124.09 159.94, 124.45 160.03, 124.81 160.11 C 125.17 160.19, 125.53 160.25, 125.91 160.3 C 126.29 160.35, 126.68 160.39, 127.07 160.41 C 127.46 160.43, 127.85 160.44, 128.26 160.43 C 128.66 160.42, 129.08 160.41, 129.5 160.37 C 129.92 160.34, 130.35 160.28, 130.78 160.22 C 131.21 160.16, 131.66 160.08, 132.1 159.99 C 132.54 159.90, 132.99 159.79, 133.45 159.67 C 133.91 159.55, 134.37 159.42, 134.84 159.27 C 135.31 159.12, 135.78 158.96, 136.26 158.78 C 136.74 158.60, 137.22 158.41, 137.71 158.21 C 138.20 158.01, 138.68 157.79, 139.18 157.56 C 139.68 157.33, 140.19 157.09, 140.69 156.83 C 141.19 156.57, 141.70 156.30, 142.21 156.02 C 142.72 155.74, 143.24 155.44, 143.76 155.13 C 144.28 154.82, 144.80 154.50, 145.32 154.16 C 145.84 153.82, 146.37 153.48, 146.9 153.12 C 147.43 152.76, 147.97 152.38, 148.5 152 C 149.03 151.62, 149.56 151.22, 150.1 150.81 C 150.63 150.40, 151.17 149.98, 151.71 149.55 C 152.25 149.12, 152.79 148.67, 153.33 148.22 C 153.87 147.77, 154.42 147.31, 154.96 146.83 C 155.50 146.36, 156.04 145.87, 156.58 145.37 C 157.12 144.87, 157.66 144.36, 158.2 143.84 C 158.74 143.32, 159.28 142.80, 159.82 142.26 C 160.36 141.72, 160.90 141.18, 161.43 140.62 C 161.97 140.06, 162.50 139.50, 163.03 138.93 C 163.56 138.36, 164.09 137.77, 164.62 137.18 C 165.15 136.59, 165.68 135.99, 166.2 135.38 C 166.72 134.77, 167.24 134.16, 167.76 133.54 C 168.28 132.92, 168.79 132.29, 169.3 131.65 C 169.81 131.01, 170.33 130.37, 170.83 129.72 C 171.33 129.07, 171.83 128.41, 172.32 127.75 C 172.81 127.09, 173.30 126.42, 173.79 125.75 C 174.28 125.08, 174.76 124.40, 175.24 123.72 C 175.72 123.04, 176.19 122.34, 176.65 121.65 C 177.12 120.96, 177.57 120.27, 178.03 119.57 C 178.49 118.87, 178.94 118.16, 179.38 117.45 C 179.82 116.74, 180.26 116.03, 180.69 115.32 C 181.12 114.61, 181.54 113.90, 181.96 113.18 C 182.38 112.46, 182.79 111.74, 183.19 111.02 C 183.59 110.30, 183.99 109.57, 184.38 108.85 C 184.77 108.13, 185.15 107.41, 185.52 106.68 C 185.89 105.96, 186.26 105.23, 186.62 104.5 C 186.98 103.77, 187.33 103.04, 187.67 102.32 C 188.01 101.59, 188.34 100.87, 188.67 100.15 C 189.00 99.43, 189.31 98.71, 189.62 97.99 C 189.93 97.27, 190.22 96.56, 190.51 95.84 C 190.80 95.13, 191.09 94.41, 191.36 93.7 C 191.63 92.99, 191.89 92.27, 192.14 91.57 C 192.39 90.86, 192.64 90.16, 192.88 89.47 C 193.12 88.78, 193.34 88.09, 193.55 87.4 C 193.77 86.71, 193.97 86.03, 194.17 85.35 C 194.36 84.67, 194.54 84.00, 194.72 83.33 C 194.90 82.66, 195.06 82.00, 195.22 81.34 C 195.38 80.68, 195.52 80.03, 195.65 79.39 C 195.78 78.75, 195.91 78.11, 196.02 77.48 C 196.13 76.85, 196.24 76.22, 196.33 75.61 C 196.42 75.00, 196.51 74.39, 196.58 73.79 C 196.65 73.19, 196.72 72.59, 196.77 72.01 C 196.82 71.43, 196.86 70.86, 196.89 70.29 C 196.92 69.73, 196.93 69.17, 196.94 68.62 C 196.95 68.07, 196.95 67.54, 196.94 67.01 C 196.93 66.48, 196.91 65.96, 196.87 65.45 C 196.84 64.94, 196.78 64.45, 196.73 63.96 C 196.67 63.47, 196.61 63.00, 196.54 62.53 C 196.47 62.06, 196.38 61.60, 196.28 61.16 C 196.18 60.71, 196.07 60.28, 195.95 59.86 C 195.83 59.44, 195.71 59.03, 195.57 58.63 C 195.43 58.23, 195.28 57.85, 195.12 57.48 C 194.96 57.11, 194.79 56.74, 194.61 56.39 C 194.43 56.04, 194.25 55.70, 194.05 55.38 C 193.85 55.06, 193.64 54.75, 193.42 54.45 C 193.20 54.15, 192.97 53.87, 192.73 53.6 C 192.49 53.33, 192.25 53.06, 191.99 52.82 C 191.73 52.58, 191.47 52.35, 191.19 52.13 C 190.91 51.91, 190.63 51.70, 190.34 51.51 Z" stroke="#4AB3F4" stroke-width="1.3"/><path d="M 39.66 51.51 C 39.95 51.32, 40.26 51.14, 40.57 50.98 C 40.88 50.82, 41.20 50.67, 41.53 50.54 C 41.86 50.41, 42.20 50.28, 42.54 50.17 C 42.88 50.06, 43.24 49.97, 43.6 49.89 C 43.96 49.81, 44.33 49.75, 44.71 49.7 C 45.09 49.65, 45.47 49.61, 45.86 49.59 C 46.25 49.57, 46.64 49.56, 47.05 49.57 C 47.45 49.58, 47.87 49.59, 48.29 49.63 C 48.71 49.67, 49.14 49.72, 49.57 49.78 C 50.00 49.84, 50.45 49.92, 50.89 50.01 C 51.34 50.10, 51.78 50.21, 52.24 50.33 C 52.70 50.45, 53.16 50.58, 53.63 50.73 C 54.10 50.88, 54.57 51.04, 55.05 51.22 C 55.53 51.40, 56.01 51.59, 56.5 51.79 C 56.99 51.99, 57.48 52.21, 57.98 52.44 C 58.48 52.67, 58.97 52.91, 59.48 53.17 C 59.98 53.43, 60.50 53.70, 61.01 53.98 C 61.52 54.26, 62.03 54.56, 62.55 54.87 C 63.07 55.18, 63.60 55.51, 64.12 55.84 C 64.65 56.18, 65.17 56.52, 65.7 56.88 C 66.23 57.24, 66.76 57.62, 67.29 58 C 67.82 58.38, 68.35 58.78, 68.89 59.19 C 69.43 59.60, 69.97 60.02, 70.51 60.45 C 71.05 60.88, 71.59 61.33, 72.13 61.78 C 72.67 62.23, 73.21 62.70, 73.75 63.17 C 74.29 63.65, 74.83 64.13, 75.37 64.63 C 75.91 65.13, 76.45 65.64, 76.99 66.16 C 77.53 66.68, 78.07 67.20, 78.61 67.74 C 79.15 68.28, 79.68 68.82, 80.22 69.38 C 80.76 69.94, 81.30 70.50, 81.83 71.07 C 82.36 71.64, 82.89 72.23, 83.42 72.82 C 83.95 73.41, 84.47 74.01, 84.99 74.62 C 85.51 75.23, 86.04 75.84, 86.56 76.46 C 87.08 77.08, 87.59 77.71, 88.1 78.35 C 88.61 78.99, 89.12 79.63, 89.62 80.28 C 90.12 80.93, 90.63 81.59, 91.12 82.25 C 91.62 82.91, 92.11 83.58, 92.59 84.25 C 93.08 84.92, 93.55 85.60, 94.03 86.28 C 94.51 86.96, 94.98 87.66, 95.45 88.35 C 95.92 89.04, 96.38 89.73, 96.83 90.43 C 97.28 91.13, 97.73 91.84, 98.17 92.55 C 98.61 93.26, 99.05 93.97, 99.48 94.68 C 99.91 95.39, 100.33 96.10, 100.75 96.82 C 101.17 97.54, 101.58 98.26, 101.98 98.98 C 102.38 99.70, 102.78 100.43, 103.17 101.15 C 103.56 101.87, 103.94 102.59, 104.31 103.32 C 104.68 104.04, 105.05 104.77, 105.41 105.5 C 105.77 106.23, 106.12 106.96, 106.46 107.68 C 106.80 108.41, 107.13 109.13, 107.46 109.85 C 107.78 110.57, 108.10 111.29, 108.41 112.01 C 108.72 112.73, 109.02 113.44, 109.31 114.16 C 109.60 114.88, 109.88 115.59, 110.15 116.3 C 110.42 117.01, 110.69 117.73, 110.94 118.43 C 111.19 119.14, 111.44 119.84, 111.67 120.53 C 111.90 121.22, 112.13 121.91, 112.34 122.6 C 112.56 123.29, 112.76 123.97, 112.96 124.65 C 113.16 125.33, 113.34 126.00, 113.51 126.67 C 113.69 127.34, 113.86 128.00, 114.01 128.66 C 114.17 129.32, 114.31 129.97, 114.44 130.61 C 114.57 131.25, 114.70 131.89, 114.82 132.52 C 114.93 133.15, 115.04 133.77, 115.13 134.39 C 115.22 135.00, 115.31 135.61, 115.38 136.21 C 115.45 136.81, 115.51 137.41, 115.56 137.99 C 115.61 138.57, 115.65 139.15, 115.68 139.71 C 115.71 140.28, 115.73 140.83, 115.74 141.38 C 115.75 141.93, 115.74 142.46, 115.73 142.99 C 115.72 143.52, 115.69 144.04, 115.66 144.55 C 115.63 145.06, 115.59 145.55, 115.53 146.04 C 115.47 146.53, 115.41 147.00, 115.33 147.47 C 115.25 147.94, 115.17 148.40, 115.07 148.84 C 114.97 149.28, 114.87 149.72, 114.75 150.14 C 114.63 150.56, 114.50 150.97, 114.36 151.37 C 114.22 151.77, 114.07 152.15, 113.91 152.52 C 113.75 152.89, 113.59 153.26, 113.41 153.61 C 113.23 153.96, 113.04 154.30, 112.84 154.62 C 112.64 154.94, 112.43 155.25, 112.21 155.55 C 111.99 155.85, 111.77 156.13, 111.53 156.4 C 111.29 156.67, 111.04 156.94, 110.78 157.18 C 110.52 157.43, 110.26 157.65, 109.98 157.87 C 109.70 158.09, 109.42 158.30, 109.13 158.49 C 108.84 158.68, 108.53 158.86, 108.22 159.02 C 107.91 159.18, 107.59 159.33, 107.26 159.46 C 106.93 159.59, 106.59 159.72, 106.25 159.83 C 105.91 159.94, 105.55 160.03, 105.19 160.11 C 104.83 160.19, 104.47 160.25, 104.09 160.3 C 103.71 160.35, 103.32 160.39, 102.93 160.41 C 102.54 160.43, 102.14 160.44, 101.74 160.43 C 101.33 160.42, 100.92 160.41, 100.5 160.37 C 100.08 160.34, 99.65 160.28, 99.22 160.22 C 98.79 160.16, 98.34 160.08, 97.9 159.99 C 97.46 159.90, 97.01 159.79, 96.55 159.67 C 96.09 159.55, 95.63 159.42, 95.16 159.27 C 94.69 159.12, 94.22 158.96, 93.74 158.78 C 93.26 158.60, 92.78 158.41, 92.29 158.21 C 91.80 158.01, 91.32 157.79, 90.82 157.56 C 90.32 157.33, 89.81 157.09, 89.31 156.83 C 88.81 156.57, 88.30 156.30, 87.79 156.02 C 87.28 155.74, 86.76 155.44, 86.24 155.13 C 85.72 154.82, 85.20 154.50, 84.68 154.16 C 84.16 153.82, 83.63 153.48, 83.1 153.12 C 82.57 152.76, 82.03 152.38, 81.5 152 C 80.97 151.62, 80.44 151.22, 79.9 150.81 C 79.37 150.40, 78.83 149.98, 78.29 149.55 C 77.75 149.12, 77.21 148.67, 76.67 148.22 C 76.13 147.77, 75.58 147.31, 75.04 146.83 C 74.50 146.36, 73.96 145.87, 73.42 145.37 C 72.88 144.87, 72.34 144.36, 71.8 143.84 C 71.26 143.32, 70.72 142.80, 70.18 142.26 C 69.64 141.72, 69.10 141.18, 68.57 140.62 C 68.03 140.06, 67.50 139.50, 66.97 138.93 C 66.44 138.36, 65.91 137.77, 65.38 137.18 C 64.85 136.59, 64.32 135.99, 63.8 135.38 C 63.28 134.77, 62.76 134.16, 62.24 133.54 C 61.72 132.92, 61.21 132.29, 60.7 131.65 C 60.19 131.01, 59.67 130.37, 59.17 129.72 C 58.67 129.07, 58.17 128.41, 57.68 127.75 C 57.19 127.09, 56.70 126.42, 56.21 125.75 C 55.72 125.08, 55.24 124.40, 54.76 123.72 C 54.28 123.04, 53.81 122.34, 53.35 121.65 C 52.89 120.96, 52.42 120.27, 51.97 119.57 C 51.52 118.87, 51.06 118.16, 50.62 117.45 C 50.18 116.74, 49.74 116.03, 49.31 115.32 C 48.88 114.61, 48.46 113.90, 48.04 113.18 C 47.62 112.46, 47.21 111.74, 46.81 111.02 C 46.41 110.30, 46.01 109.57, 45.62 108.85 C 45.23 108.13, 44.85 107.41, 44.48 106.68 C 44.11 105.96, 43.74 105.23, 43.38 104.5 C 43.02 103.77, 42.67 103.04, 42.33 102.32 C 41.99 101.59, 41.66 100.87, 41.33 100.15 C 41.00 99.43, 40.69 98.71, 40.38 97.99 C 40.07 97.27, 39.78 96.56, 39.49 95.84 C 39.20 95.13, 38.91 94.41, 38.64 93.7 C 38.37 92.99, 38.11 92.27, 37.86 91.57 C 37.61 90.86, 37.35 90.16, 37.12 89.47 C 36.88 88.78, 36.67 88.09, 36.45 87.4 C 36.23 86.71, 36.02 86.03, 35.83 85.35 C 35.63 84.67, 35.45 84.00, 35.28 83.33 C 35.11 82.66, 34.94 82.00, 34.78 81.34 C 34.63 80.68, 34.48 80.03, 34.35 79.39 C 34.22 78.75, 34.09 78.11, 33.98 77.48 C 33.87 76.85, 33.76 76.22, 33.67 75.61 C 33.58 75.00, 33.49 74.39, 33.42 73.79 C 33.35 73.19, 33.28 72.59, 33.23 72.01 C 33.18 71.43, 33.14 70.86, 33.11 70.29 C 33.08 69.73, 33.07 69.17, 33.06 68.62 C 33.05 68.07, 33.05 67.54, 33.06 67.01 C 33.07 66.48, 33.09 65.96, 33.13 65.45 C 33.17 64.94, 33.22 64.45, 33.27 63.96 C 33.33 63.47, 33.39 63.00, 33.46 62.53 C 33.53 62.06, 33.62 61.60, 33.72 61.16 C 33.82 60.71, 33.93 60.28, 34.05 59.86 C 34.17 59.44, 34.29 59.03, 34.43 58.63 C 34.57 58.23, 34.72 57.85, 34.88 57.48 C 35.04 57.11, 35.21 56.74, 35.39 56.39 C 35.57 56.04, 35.75 55.70, 35.95 55.38 C 36.15 55.06, 36.36 54.75, 36.58 54.45 C 36.80 54.15, 37.03 53.87, 37.27 53.6 C 37.51 53.33, 37.75 53.06, 38.01 52.82 C 38.27 52.58, 38.54 52.35, 38.81 52.13 C 39.09 51.91, 39.37 51.70, 39.66 51.51 Z" stroke="#4AB3F4" stroke-width="1.3"/><path d="M 180.74 66.29 C 180.53 66.15, 180.31 66.03, 180.08 65.91 C 179.86 65.79, 179.63 65.69, 179.39 65.59 C 179.15 65.49, 178.91 65.40, 178.66 65.32 C 178.41 65.24, 178.15 65.18, 177.89 65.12 C 177.63 65.06, 177.36 65.02, 177.09 64.98 C 176.82 64.94, 176.54 64.92, 176.26 64.9 C 175.98 64.89, 175.68 64.89, 175.39 64.89 C 175.09 64.89, 174.79 64.91, 174.49 64.93 C 174.19 64.96, 173.88 64.99, 173.57 65.04 C 173.26 65.09, 172.93 65.14, 172.61 65.21 C 172.29 65.28, 171.97 65.35, 171.64 65.44 C 171.31 65.53, 170.97 65.62, 170.63 65.73 C 170.29 65.84, 169.95 65.95, 169.6 66.08 C 169.25 66.21, 168.90 66.34, 168.55 66.49 C 168.20 66.64, 167.85 66.79, 167.49 66.96 C 167.13 67.13, 166.77 67.30, 166.4 67.49 C 166.03 67.68, 165.66 67.88, 165.29 68.08 C 164.92 68.28, 164.56 68.50, 164.18 68.72 C 163.81 68.94, 163.42 69.18, 163.04 69.42 C 162.66 69.66, 162.28 69.92, 161.9 70.18 C 161.52 70.44, 161.13 70.71, 160.75 70.99 C 160.37 71.27, 159.98 71.55, 159.59 71.85 C 159.20 72.14, 158.81 72.45, 158.42 72.76 C 158.03 73.07, 157.64 73.39, 157.25 73.72 C 156.86 74.05, 156.46 74.39, 156.07 74.73 C 155.68 75.08, 155.29 75.43, 154.9 75.79 C 154.51 76.15, 154.11 76.52, 153.72 76.89 C 153.33 77.27, 152.94 77.65, 152.55 78.04 C 152.16 78.43, 151.78 78.82, 151.39 79.22 C 151.00 79.62, 150.62 80.03, 150.23 80.45 C 149.84 80.87, 149.45 81.28, 149.07 81.71 C 148.69 82.14, 148.31 82.57, 147.93 83.01 C 147.55 83.45, 147.17 83.90, 146.8 84.35 C 146.43 84.80, 146.06 85.25, 145.69 85.71 C 145.32 86.17, 144.96 86.64, 144.59 87.11 C 144.22 87.58, 143.86 88.05, 143.5 88.53 C 143.14 89.01, 142.79 89.49, 142.44 89.98 C 142.09 90.47, 141.73 90.95, 141.39 91.45 C 141.04 91.95, 140.71 92.45, 140.37 92.95 C 140.03 93.45, 139.70 93.95, 139.37 94.46 C 139.04 94.97, 138.72 95.48, 138.4 95.99 C 138.08 96.50, 137.76 97.02, 137.45 97.53 C 137.14 98.05, 136.83 98.56, 136.53 99.08 C 136.23 99.60, 135.93 100.12, 135.64 100.64 C 135.35 101.16, 135.06 101.68, 134.78 102.21 C 134.50 102.73, 134.22 103.27, 133.95 103.79 C 133.68 104.32, 133.42 104.84, 133.16 105.36 C 132.90 105.88, 132.65 106.41, 132.4 106.94 C 132.15 107.47, 131.90 107.99, 131.67 108.51 C 131.44 109.03, 131.21 109.55, 130.99 110.07 C 130.77 110.59, 130.55 111.11, 130.34 111.63 C 130.13 112.15, 129.93 112.67, 129.73 113.18 C 129.53 113.70, 129.34 114.21, 129.16 114.72 C 128.98 115.23, 128.80 115.74, 128.63 116.24 C 128.46 116.74, 128.29 117.24, 128.14 117.74 C 127.98 118.24, 127.84 118.73, 127.7 119.22 C 127.56 119.71, 127.42 120.21, 127.29 120.69 C 127.16 121.17, 127.05 121.65, 126.94 122.12 C 126.83 122.59, 126.72 123.06, 126.62 123.53 C 126.52 124.00, 126.43 124.46, 126.35 124.92 C 126.27 125.38, 126.20 125.82, 126.13 126.27 C 126.06 126.72, 126.00 127.16, 125.95 127.59 C 125.90 128.02, 125.85 128.45, 125.81 128.87 C 125.77 129.29, 125.75 129.71, 125.73 130.12 C 125.71 130.53, 125.70 130.93, 125.69 131.33 C 125.68 131.73, 125.68 132.12, 125.69 132.5 C 125.70 132.88, 125.71 133.25, 125.74 133.62 C 125.77 133.99, 125.80 134.35, 125.84 134.7 C 125.88 135.05, 125.93 135.40, 125.98 135.74 C 126.03 136.08, 126.10 136.41, 126.17 136.73 C 126.24 137.05, 126.31 137.37, 126.4 137.67 C 126.49 137.97, 126.58 138.26, 126.68 138.55 C 126.78 138.84, 126.89 139.12, 127 139.39 C 127.11 139.66, 127.24 139.93, 127.37 140.18 C 127.50 140.43, 127.64 140.68, 127.78 140.91 C 127.92 141.14, 128.08 141.37, 128.24 141.58 C 128.40 141.80, 128.56 142.00, 128.73 142.2 C 128.90 142.40, 129.08 142.58, 129.27 142.76 C 129.46 142.94, 129.65 143.10, 129.85 143.26 C 130.05 143.42, 130.26 143.57, 130.47 143.71 C 130.68 143.85, 130.90 143.97, 131.12 144.09 C 131.34 144.21, 131.58 144.31, 131.82 144.41 C 132.06 144.51, 132.30 144.60, 132.55 144.68 C 132.80 144.76, 133.06 144.82, 133.32 144.88 C 133.58 144.94, 133.85 144.98, 134.12 145.02 C 134.39 145.06, 134.67 145.08, 134.95 145.1 C 135.23 145.12, 135.53 145.12, 135.82 145.11 C 136.11 145.11, 136.41 145.09, 136.71 145.07 C 137.01 145.04, 137.33 145.01, 137.64 144.96 C 137.95 144.91, 138.27 144.86, 138.59 144.79 C 138.91 144.72, 139.24 144.65, 139.57 144.56 C 139.90 144.47, 140.24 144.38, 140.58 144.27 C 140.92 144.16, 141.25 144.05, 141.6 143.92 C 141.94 143.79, 142.30 143.66, 142.65 143.51 C 143.00 143.36, 143.36 143.21, 143.72 143.04 C 144.08 142.87, 144.44 142.70, 144.81 142.51 C 145.18 142.32, 145.54 142.13, 145.91 141.92 C 146.28 141.71, 146.66 141.50, 147.03 141.28 C 147.41 141.06, 147.78 140.82, 148.16 140.58 C 148.54 140.34, 148.93 140.08, 149.31 139.82 C 149.69 139.56, 150.08 139.29, 150.46 139.01 C 150.84 138.73, 151.23 138.44, 151.62 138.15 C 152.01 137.86, 152.40 137.55, 152.79 137.24 C 153.18 136.93, 153.57 136.61, 153.96 136.28 C 154.35 135.95, 154.74 135.62, 155.13 135.27 C 155.52 134.93, 155.92 134.57, 156.31 134.21 C 156.70 133.85, 157.09 133.49, 157.48 133.11 C 157.87 132.74, 158.26 132.35, 158.65 131.96 C 159.04 131.57, 159.43 131.18, 159.82 130.78 C 160.21 130.38, 160.59 129.97, 160.98 129.55 C 161.36 129.14, 161.75 128.72, 162.13 128.29 C 162.51 127.86, 162.89 127.43, 163.27 126.99 C 163.65 126.55, 164.03 126.10, 164.4 125.65 C 164.78 125.20, 165.15 124.75, 165.52 124.29 C 165.89 123.83, 166.26 123.36, 166.62 122.89 C 166.98 122.42, 167.34 121.95, 167.7 121.47 C 168.06 120.99, 168.42 120.51, 168.77 120.02 C 169.12 119.53, 169.47 119.05, 169.81 118.55 C 170.16 118.05, 170.50 117.55, 170.84 117.05 C 171.18 116.55, 171.51 116.05, 171.84 115.54 C 172.17 115.03, 172.49 114.52, 172.81 114.01 C 173.13 113.50, 173.45 112.98, 173.76 112.47 C 174.07 111.95, 174.38 111.44, 174.68 110.92 C 174.98 110.40, 175.28 109.88, 175.57 109.36 C 175.86 108.84, 176.15 108.32, 176.43 107.79 C 176.71 107.27, 176.98 106.73, 177.25 106.21 C 177.52 105.68, 177.79 105.16, 178.05 104.64 C 178.31 104.12, 178.56 103.59, 178.81 103.06 C 179.06 102.53, 179.30 102.01, 179.53 101.49 C 179.76 100.97, 180.00 100.45, 180.22 99.93 C 180.44 99.41, 180.66 98.89, 180.87 98.37 C 181.08 97.85, 181.28 97.33, 181.48 96.82 C 181.68 96.30, 181.87 95.79, 182.05 95.28 C 182.23 94.77, 182.41 94.26, 182.58 93.76 C 182.75 93.26, 182.91 92.76, 183.06 92.26 C 183.22 91.76, 183.37 91.27, 183.51 90.78 C 183.65 90.29, 183.78 89.79, 183.91 89.31 C 184.04 88.83, 184.16 88.35, 184.27 87.88 C 184.38 87.41, 184.49 86.94, 184.59 86.47 C 184.69 86.00, 184.78 85.54, 184.86 85.08 C 184.94 84.62, 185.01 84.18, 185.08 83.73 C 185.15 83.28, 185.21 82.84, 185.26 82.41 C 185.31 81.98, 185.35 81.55, 185.39 81.13 C 185.43 80.71, 185.46 80.29, 185.48 79.88 C 185.50 79.47, 185.51 79.07, 185.52 78.67 C 185.53 78.27, 185.53 77.88, 185.52 77.5 C 185.51 77.12, 185.50 76.75, 185.47 76.38 C 185.44 76.01, 185.41 75.65, 185.37 75.3 C 185.33 74.95, 185.28 74.60, 185.23 74.26 C 185.17 73.92, 185.11 73.59, 185.04 73.27 C 184.97 72.95, 184.89 72.63, 184.8 72.33 C 184.72 72.03, 184.63 71.74, 184.53 71.45 C 184.43 71.16, 184.32 70.88, 184.2 70.61 C 184.08 70.34, 183.96 70.07, 183.83 69.82 C 183.70 69.57, 183.56 69.32, 183.42 69.09 C 183.28 68.86, 183.13 68.64, 182.97 68.42 C 182.81 68.20, 182.64 68.00, 182.47 67.8 C 182.30 67.60, 182.13 67.42, 181.94 67.24 C 181.75 67.06, 181.56 66.90, 181.36 66.74 C 181.16 66.58, 180.95 66.43, 180.74 66.29 Z" stroke="#4AB3F4" stroke-width="1.3"/><path d="M 49.26 66.29 C 49.47 66.15, 49.70 66.03, 49.92 65.91 C 50.15 65.79, 50.37 65.69, 50.61 65.59 C 50.85 65.49, 51.09 65.40, 51.34 65.32 C 51.59 65.24, 51.85 65.18, 52.11 65.12 C 52.37 65.06, 52.64 65.02, 52.91 64.98 C 53.18 64.94, 53.46 64.92, 53.74 64.9 C 54.02 64.89, 54.31 64.89, 54.61 64.89 C 54.91 64.89, 55.21 64.91, 55.51 64.93 C 55.81 64.96, 56.12 64.99, 56.43 65.04 C 56.74 65.09, 57.07 65.14, 57.39 65.21 C 57.71 65.28, 58.03 65.35, 58.36 65.44 C 58.69 65.53, 59.03 65.62, 59.37 65.73 C 59.71 65.84, 60.05 65.95, 60.4 66.08 C 60.75 66.21, 61.10 66.34, 61.45 66.49 C 61.80 66.64, 62.15 66.79, 62.51 66.96 C 62.87 67.13, 63.23 67.30, 63.6 67.49 C 63.97 67.68, 64.34 67.88, 64.71 68.08 C 65.08 68.28, 65.44 68.50, 65.82 68.72 C 66.19 68.94, 66.58 69.18, 66.96 69.42 C 67.34 69.66, 67.72 69.92, 68.1 70.18 C 68.48 70.44, 68.86 70.71, 69.25 70.99 C 69.64 71.27, 70.02 71.55, 70.41 71.85 C 70.80 72.14, 71.19 72.45, 71.58 72.76 C 71.97 73.07, 72.36 73.39, 72.75 73.72 C 73.14 74.05, 73.54 74.39, 73.93 74.73 C 74.32 75.08, 74.71 75.43, 75.1 75.79 C 75.49 76.15, 75.89 76.52, 76.28 76.89 C 76.67 77.27, 77.06 77.65, 77.45 78.04 C 77.84 78.43, 78.22 78.82, 78.61 79.22 C 79.00 79.62, 79.38 80.03, 79.77 80.45 C 80.16 80.87, 80.55 81.28, 80.93 81.71 C 81.31 82.14, 81.69 82.57, 82.07 83.01 C 82.45 83.45, 82.83 83.90, 83.2 84.35 C 83.57 84.80, 83.94 85.25, 84.31 85.71 C 84.68 86.17, 85.05 86.64, 85.41 87.11 C 85.77 87.58, 86.14 88.05, 86.5 88.53 C 86.86 89.01, 87.21 89.49, 87.56 89.98 C 87.91 90.47, 88.27 90.95, 88.61 91.45 C 88.95 91.95, 89.29 92.45, 89.63 92.95 C 89.97 93.45, 90.30 93.95, 90.63 94.46 C 90.96 94.97, 91.28 95.48, 91.6 95.99 C 91.92 96.50, 92.24 97.02, 92.55 97.53 C 92.86 98.05, 93.17 98.56, 93.47 99.08 C 93.77 99.60, 94.07 100.12, 94.36 100.64 C 94.65 101.16, 94.94 101.68, 95.22 102.21 C 95.50 102.73, 95.78 103.27, 96.05 103.79 C 96.32 104.32, 96.58 104.84, 96.84 105.36 C 97.10 105.88, 97.35 106.41, 97.6 106.94 C 97.85 107.47, 98.09 107.99, 98.33 108.51 C 98.56 109.03, 98.79 109.55, 99.01 110.07 C 99.23 110.59, 99.45 111.11, 99.66 111.63 C 99.87 112.15, 100.07 112.67, 100.27 113.18 C 100.47 113.70, 100.66 114.21, 100.84 114.72 C 101.02 115.23, 101.20 115.74, 101.37 116.24 C 101.54 116.74, 101.70 117.24, 101.86 117.74 C 102.02 118.24, 102.16 118.73, 102.3 119.22 C 102.44 119.71, 102.58 120.21, 102.71 120.69 C 102.84 121.17, 102.95 121.65, 103.06 122.12 C 103.17 122.59, 103.28 123.06, 103.38 123.53 C 103.48 124.00, 103.57 124.46, 103.65 124.92 C 103.73 125.38, 103.80 125.82, 103.87 126.27 C 103.94 126.72, 104.00 127.16, 104.05 127.59 C 104.10 128.02, 104.15 128.45, 104.19 128.87 C 104.23 129.29, 104.25 129.71, 104.27 130.12 C 104.29 130.53, 104.30 130.93, 104.31 131.33 C 104.32 131.73, 104.32 132.12, 104.31 132.5 C 104.30 132.88, 104.29 133.25, 104.26 133.62 C 104.23 133.99, 104.20 134.35, 104.16 134.7 C 104.12 135.05, 104.07 135.40, 104.02 135.74 C 103.97 136.08, 103.90 136.41, 103.83 136.73 C 103.76 137.05, 103.69 137.37, 103.6 137.67 C 103.51 137.97, 103.42 138.26, 103.32 138.55 C 103.22 138.84, 103.11 139.12, 103 139.39 C 102.89 139.66, 102.76 139.93, 102.63 140.18 C 102.50 140.43, 102.36 140.68, 102.22 140.91 C 102.08 141.14, 101.92 141.37, 101.76 141.58 C 101.60 141.80, 101.44 142.00, 101.27 142.2 C 101.10 142.40, 100.92 142.58, 100.73 142.76 C 100.54 142.94, 100.35 143.10, 100.15 143.26 C 99.95 143.42, 99.74 143.57, 99.53 143.71 C 99.32 143.85, 99.10 143.97, 98.88 144.09 C 98.66 144.21, 98.42 144.31, 98.18 144.41 C 97.94 144.51, 97.70 144.60, 97.45 144.68 C 97.20 144.76, 96.94 144.82, 96.68 144.88 C 96.42 144.94, 96.15 144.98, 95.88 145.02 C 95.61 145.06, 95.33 145.08, 95.05 145.1 C 94.77 145.12, 94.47 145.12, 94.18 145.11 C 93.89 145.11, 93.59 145.09, 93.29 145.07 C 92.99 145.04, 92.67 145.01, 92.36 144.96 C 92.05 144.91, 91.73 144.86, 91.41 144.79 C 91.09 144.72, 90.76 144.65, 90.43 144.56 C 90.10 144.47, 89.76 144.38, 89.42 144.27 C 89.08 144.16, 88.75 144.05, 88.4 143.92 C 88.06 143.79, 87.70 143.66, 87.35 143.51 C 87.00 143.36, 86.64 143.21, 86.28 143.04 C 85.92 142.87, 85.55 142.70, 85.19 142.51 C 84.83 142.32, 84.46 142.13, 84.09 141.92 C 83.72 141.71, 83.34 141.50, 82.97 141.28 C 82.59 141.06, 82.22 140.82, 81.84 140.58 C 81.46 140.34, 81.07 140.08, 80.69 139.82 C 80.31 139.56, 79.93 139.29, 79.54 139.01 C 79.16 138.73, 78.77 138.44, 78.38 138.15 C 77.99 137.86, 77.60 137.55, 77.21 137.24 C 76.82 136.93, 76.43 136.61, 76.04 136.28 C 75.65 135.95, 75.26 135.62, 74.87 135.27 C 74.48 134.93, 74.08 134.57, 73.69 134.21 C 73.30 133.85, 72.91 133.49, 72.52 133.11 C 72.13 132.74, 71.74 132.35, 71.35 131.96 C 70.96 131.57, 70.57 131.18, 70.18 130.78 C 69.79 130.38, 69.41 129.97, 69.02 129.55 C 68.63 129.14, 68.25 128.72, 67.87 128.29 C 67.49 127.86, 67.11 127.43, 66.73 126.99 C 66.35 126.55, 65.97 126.10, 65.6 125.65 C 65.22 125.20, 64.85 124.75, 64.48 124.29 C 64.11 123.83, 63.74 123.36, 63.38 122.89 C 63.02 122.42, 62.66 121.95, 62.3 121.47 C 61.94 120.99, 61.58 120.51, 61.23 120.02 C 60.88 119.53, 60.53 119.05, 60.19 118.55 C 59.84 118.05, 59.50 117.55, 59.16 117.05 C 58.82 116.55, 58.49 116.05, 58.16 115.54 C 57.83 115.03, 57.51 114.52, 57.19 114.01 C 56.87 113.50, 56.55 112.98, 56.24 112.47 C 55.93 111.95, 55.62 111.44, 55.32 110.92 C 55.02 110.40, 54.72 109.88, 54.43 109.36 C 54.14 108.84, 53.85 108.32, 53.57 107.79 C 53.29 107.27, 53.02 106.73, 52.75 106.21 C 52.48 105.68, 52.21 105.16, 51.95 104.64 C 51.69 104.12, 51.44 103.59, 51.19 103.06 C 50.94 102.53, 50.70 102.01, 50.47 101.49 C 50.23 100.97, 50.00 100.45, 49.78 99.93 C 49.56 99.41, 49.34 98.89, 49.13 98.37 C 48.92 97.85, 48.72 97.33, 48.52 96.82 C 48.32 96.30, 48.13 95.79, 47.95 95.28 C 47.77 94.77, 47.59 94.26, 47.42 93.76 C 47.25 93.26, 47.09 92.76, 46.94 92.26 C 46.78 91.76, 46.63 91.27, 46.49 90.78 C 46.35 90.29, 46.22 89.79, 46.09 89.31 C 45.96 88.83, 45.84 88.35, 45.73 87.88 C 45.62 87.41, 45.51 86.94, 45.41 86.47 C 45.31 86.00, 45.22 85.54, 45.14 85.08 C 45.06 84.62, 44.99 84.18, 44.92 83.73 C 44.85 83.28, 44.79 82.84, 44.74 82.41 C 44.69 81.98, 44.65 81.55, 44.61 81.13 C 44.57 80.71, 44.54 80.29, 44.52 79.88 C 44.50 79.47, 44.49 79.07, 44.48 78.67 C 44.47 78.27, 44.47 77.88, 44.48 77.5 C 44.49 77.12, 44.51 76.75, 44.53 76.38 C 44.55 76.01, 44.59 75.65, 44.63 75.3 C 44.67 74.95, 44.72 74.60, 44.77 74.26 C 44.83 73.92, 44.89 73.59, 44.96 73.27 C 45.03 72.95, 45.12 72.63, 45.2 72.33 C 45.29 72.03, 45.37 71.74, 45.47 71.45 C 45.57 71.16, 45.68 70.88, 45.8 70.61 C 45.92 70.34, 46.04 70.07, 46.17 69.82 C 46.30 69.57, 46.44 69.32, 46.58 69.09 C 46.72 68.86, 46.87 68.64, 47.03 68.42 C 47.19 68.20, 47.36 68.00, 47.53 67.8 C 47.70 67.60, 47.88 67.42, 48.06 67.24 C 48.25 67.06, 48.44 66.90, 48.64 66.74 C 48.84 66.58, 49.05 66.43, 49.26 66.29 Z" stroke="#4AB3F4" stroke-width="1.3"/><path d="M 172.51 78.96 C 172.37 78.87, 172.22 78.78, 172.07 78.7 C 171.92 78.62, 171.76 78.55, 171.6 78.48 C 171.44 78.42, 171.28 78.36, 171.11 78.31 C 170.94 78.26, 170.78 78.21, 170.6 78.17 C 170.42 78.13, 170.24 78.11, 170.06 78.08 C 169.88 78.05, 169.69 78.03, 169.5 78.02 C 169.31 78.01, 169.11 78.01, 168.91 78.01 C 168.71 78.01, 168.51 78.02, 168.31 78.04 C 168.11 78.06, 167.90 78.09, 167.69 78.12 C 167.48 78.15, 167.27 78.19, 167.05 78.23 C 166.83 78.27, 166.61 78.32, 166.39 78.38 C 166.17 78.44, 165.94 78.51, 165.71 78.58 C 165.48 78.65, 165.25 78.73, 165.02 78.82 C 164.79 78.91, 164.56 78.99, 164.32 79.09 C 164.08 79.19, 163.84 79.30, 163.6 79.41 C 163.36 79.52, 163.12 79.64, 162.87 79.77 C 162.62 79.89, 162.37 80.02, 162.12 80.16 C 161.87 80.30, 161.62 80.44, 161.37 80.59 C 161.12 80.74, 160.87 80.91, 160.61 81.07 C 160.36 81.23, 160.10 81.39, 159.84 81.57 C 159.58 81.74, 159.32 81.93, 159.06 82.12 C 158.80 82.31, 158.54 82.50, 158.28 82.7 C 158.02 82.90, 157.76 83.10, 157.5 83.31 C 157.24 83.52, 156.97 83.74, 156.71 83.96 C 156.45 84.18, 156.18 84.41, 155.92 84.64 C 155.66 84.87, 155.39 85.11, 155.13 85.35 C 154.87 85.59, 154.60 85.84, 154.34 86.09 C 154.08 86.34, 153.81 86.60, 153.55 86.86 C 153.29 87.12, 153.03 87.39, 152.77 87.66 C 152.51 87.93, 152.25 88.20, 151.99 88.48 C 151.73 88.76, 151.47 89.04, 151.21 89.33 C 150.95 89.62, 150.69 89.91, 150.44 90.21 C 150.19 90.51, 149.93 90.81, 149.68 91.11 C 149.43 91.41, 149.18 91.72, 148.93 92.03 C 148.68 92.34, 148.44 92.66, 148.19 92.97 C 147.94 93.28, 147.70 93.60, 147.46 93.92 C 147.22 94.24, 146.99 94.57, 146.75 94.9 C 146.51 95.23, 146.27 95.56, 146.04 95.89 C 145.81 96.22, 145.59 96.55, 145.36 96.89 C 145.13 97.23, 144.90 97.57, 144.68 97.91 C 144.46 98.25, 144.25 98.60, 144.03 98.94 C 143.81 99.28, 143.60 99.62, 143.39 99.97 C 143.18 100.32, 142.97 100.67, 142.77 101.02 C 142.57 101.37, 142.37 101.72, 142.17 102.07 C 141.97 102.42, 141.78 102.77, 141.59 103.12 C 141.40 103.47, 141.22 103.83, 141.04 104.18 C 140.86 104.53, 140.68 104.89, 140.5 105.24 C 140.32 105.59, 140.16 105.95, 139.99 106.3 C 139.83 106.65, 139.67 107.01, 139.51 107.36 C 139.35 107.71, 139.19 108.06, 139.04 108.41 C 138.89 108.76, 138.75 109.11, 138.61 109.46 C 138.47 109.81, 138.33 110.15, 138.2 110.5 C 138.07 110.85, 137.93 111.20, 137.81 111.54 C 137.69 111.88, 137.57 112.22, 137.46 112.56 C 137.35 112.90, 137.23 113.23, 137.13 113.57 C 137.03 113.90, 136.93 114.24, 136.83 114.57 C 136.74 114.90, 136.65 115.22, 136.56 115.55 C 136.47 115.88, 136.39 116.20, 136.32 116.52 C 136.25 116.84, 136.18 117.16, 136.11 117.47 C 136.04 117.78, 135.98 118.09, 135.92 118.4 C 135.86 118.71, 135.81 119.01, 135.77 119.31 C 135.73 119.61, 135.69 119.90, 135.65 120.19 C 135.62 120.48, 135.59 120.78, 135.56 121.06 C 135.53 121.34, 135.51 121.63, 135.5 121.9 C 135.49 122.18, 135.48 122.44, 135.48 122.71 C 135.48 122.98, 135.47 123.24, 135.48 123.5 C 135.48 123.76, 135.49 124.00, 135.51 124.25 C 135.53 124.50, 135.55 124.74, 135.58 124.98 C 135.61 125.22, 135.64 125.45, 135.68 125.68 C 135.72 125.91, 135.75 126.12, 135.8 126.34 C 135.85 126.56, 135.90 126.78, 135.96 126.98 C 136.02 127.19, 136.08 127.38, 136.15 127.57 C 136.22 127.76, 136.28 127.96, 136.36 128.14 C 136.44 128.32, 136.52 128.49, 136.61 128.66 C 136.70 128.83, 136.79 129.00, 136.89 129.16 C 136.99 129.32, 137.08 129.47, 137.19 129.61 C 137.30 129.76, 137.41 129.90, 137.53 130.03 C 137.65 130.16, 137.76 130.28, 137.89 130.4 C 138.01 130.52, 138.15 130.63, 138.28 130.74 C 138.41 130.85, 138.55 130.95, 138.69 131.04 C 138.83 131.13, 138.99 131.22, 139.14 131.3 C 139.29 131.38, 139.44 131.46, 139.6 131.52 C 139.76 131.59, 139.92 131.64, 140.09 131.69 C 140.26 131.74, 140.43 131.79, 140.61 131.83 C 140.79 131.87, 140.97 131.89, 141.15 131.92 C 141.33 131.94, 141.52 131.97, 141.71 131.98 C 141.90 131.99, 142.09 131.99, 142.29 131.99 C 142.49 131.99, 142.69 131.98, 142.9 131.96 C 143.11 131.94, 143.31 131.91, 143.52 131.88 C 143.73 131.85, 143.94 131.81, 144.16 131.77 C 144.38 131.73, 144.60 131.68, 144.82 131.62 C 145.04 131.56, 145.26 131.49, 145.49 131.42 C 145.72 131.35, 145.96 131.27, 146.19 131.18 C 146.42 131.09, 146.65 131.01, 146.89 130.91 C 147.13 130.81, 147.37 130.70, 147.61 130.59 C 147.85 130.48, 148.09 130.35, 148.34 130.23 C 148.59 130.10, 148.83 129.98, 149.08 129.84 C 149.33 129.70, 149.59 129.56, 149.84 129.41 C 150.09 129.26, 150.34 129.09, 150.6 128.93 C 150.85 128.77, 151.11 128.61, 151.37 128.43 C 151.63 128.25, 151.88 128.07, 152.14 127.88 C 152.40 127.69, 152.66 127.50, 152.92 127.3 C 153.18 127.10, 153.45 126.90, 153.71 126.69 C 153.97 126.48, 154.24 126.26, 154.5 126.04 C 154.76 125.82, 155.03 125.59, 155.29 125.36 C 155.55 125.13, 155.82 124.89, 156.08 124.65 C 156.34 124.41, 156.61 124.16, 156.87 123.91 C 157.13 123.66, 157.40 123.40, 157.66 123.14 C 157.92 122.88, 158.18 122.61, 158.44 122.34 C 158.70 122.07, 158.96 121.80, 159.22 121.52 C 159.48 121.24, 159.74 120.96, 160 120.67 C 160.26 120.38, 160.51 120.09, 160.76 119.79 C 161.01 119.49, 161.27 119.19, 161.52 118.89 C 161.77 118.59, 162.02 118.28, 162.27 117.97 C 162.52 117.66, 162.76 117.34, 163.01 117.03 C 163.25 116.72, 163.50 116.40, 163.74 116.08 C 163.98 115.76, 164.22 115.43, 164.46 115.1 C 164.70 114.77, 164.93 114.44, 165.16 114.11 C 165.39 113.78, 165.62 113.45, 165.85 113.11 C 166.08 112.77, 166.30 112.43, 166.52 112.09 C 166.74 111.75, 166.96 111.40, 167.18 111.06 C 167.40 110.72, 167.61 110.38, 167.82 110.03 C 168.03 109.68, 168.23 109.33, 168.43 108.98 C 168.63 108.63, 168.83 108.28, 169.03 107.93 C 169.23 107.58, 169.42 107.23, 169.61 106.88 C 169.80 106.53, 169.99 106.17, 170.17 105.82 C 170.35 105.47, 170.53 105.11, 170.7 104.76 C 170.87 104.41, 171.04 104.05, 171.21 103.7 C 171.38 103.35, 171.54 102.99, 171.7 102.64 C 171.86 102.29, 172.01 101.94, 172.16 101.59 C 172.31 101.24, 172.46 100.89, 172.6 100.54 C 172.74 100.19, 172.88 99.85, 173.01 99.5 C 173.14 99.15, 173.27 98.80, 173.39 98.46 C 173.51 98.12, 173.63 97.78, 173.75 97.44 C 173.87 97.10, 173.98 96.77, 174.08 96.43 C 174.19 96.10, 174.28 95.76, 174.38 95.43 C 174.47 95.10, 174.56 94.78, 174.65 94.45 C 174.74 94.13, 174.81 93.80, 174.89 93.48 C 174.96 93.16, 175.03 92.84, 175.1 92.53 C 175.16 92.22, 175.22 91.91, 175.28 91.6 C 175.34 91.29, 175.38 90.99, 175.43 90.69 C 175.48 90.39, 175.52 90.10, 175.55 89.81 C 175.59 89.52, 175.61 89.22, 175.64 88.94 C 175.66 88.66, 175.69 88.38, 175.7 88.1 C 175.71 87.82, 175.72 87.56, 175.73 87.29 C 175.73 87.02, 175.74 86.76, 175.73 86.5 C 175.72 86.24, 175.71 86.00, 175.69 85.75 C 175.67 85.50, 175.66 85.26, 175.63 85.02 C 175.60 84.78, 175.57 84.55, 175.53 84.32 C 175.49 84.09, 175.45 83.88, 175.4 83.66 C 175.35 83.44, 175.31 83.22, 175.25 83.02 C 175.19 82.81, 175.13 82.62, 175.06 82.43 C 174.99 82.24, 174.92 82.04, 174.84 81.86 C 174.76 81.68, 174.69 81.51, 174.6 81.34 C 174.51 81.17, 174.42 81.00, 174.32 80.84 C 174.22 80.68, 174.12 80.53, 174.01 80.39 C 173.90 80.25, 173.80 80.10, 173.68 79.97 C 173.56 79.84, 173.44 79.72, 173.32 79.6 C 173.19 79.48, 173.06 79.37, 172.93 79.26 C 172.80 79.15, 172.65 79.05, 172.51 78.96 Z" stroke="#4AB3F4" stroke-width="1.3"/><path d="M 57.49 78.96 C 57.63 78.87, 57.78 78.78, 57.93 78.7 C 58.08 78.62, 58.24 78.55, 58.4 78.48 C 58.56 78.42, 58.72 78.36, 58.89 78.31 C 59.06 78.26, 59.23 78.21, 59.4 78.17 C 59.57 78.13, 59.76 78.11, 59.94 78.08 C 60.12 78.05, 60.31 78.03, 60.5 78.02 C 60.69 78.01, 60.89 78.01, 61.09 78.01 C 61.29 78.01, 61.49 78.02, 61.69 78.04 C 61.89 78.06, 62.10 78.09, 62.31 78.12 C 62.52 78.15, 62.73 78.19, 62.95 78.23 C 63.17 78.27, 63.39 78.32, 63.61 78.38 C 63.83 78.44, 64.06 78.51, 64.29 78.58 C 64.52 78.65, 64.75 78.73, 64.98 78.82 C 65.21 78.91, 65.44 78.99, 65.68 79.09 C 65.92 79.19, 66.16 79.30, 66.4 79.41 C 66.64 79.52, 66.88 79.64, 67.13 79.77 C 67.38 79.89, 67.63 80.02, 67.88 80.16 C 68.13 80.30, 68.38 80.44, 68.63 80.59 C 68.88 80.74, 69.14 80.91, 69.39 81.07 C 69.64 81.23, 69.90 81.39, 70.16 81.57 C 70.42 81.74, 70.68 81.93, 70.94 82.12 C 71.20 82.31, 71.46 82.50, 71.72 82.7 C 71.98 82.90, 72.24 83.10, 72.5 83.31 C 72.76 83.52, 73.03 83.74, 73.29 83.96 C 73.55 84.18, 73.82 84.41, 74.08 84.64 C 74.34 84.87, 74.61 85.11, 74.87 85.35 C 75.13 85.59, 75.40 85.84, 75.66 86.09 C 75.92 86.34, 76.19 86.60, 76.45 86.86 C 76.71 87.12, 76.97 87.39, 77.23 87.66 C 77.49 87.93, 77.75 88.20, 78.01 88.48 C 78.27 88.76, 78.53 89.04, 78.79 89.33 C 79.05 89.62, 79.31 89.91, 79.56 90.21 C 79.81 90.51, 80.07 90.81, 80.32 91.11 C 80.57 91.41, 80.82 91.72, 81.07 92.03 C 81.32 92.34, 81.56 92.66, 81.81 92.97 C 82.06 93.28, 82.30 93.60, 82.54 93.92 C 82.78 94.24, 83.01 94.57, 83.25 94.9 C 83.49 95.23, 83.73 95.56, 83.96 95.89 C 84.19 96.22, 84.41 96.55, 84.64 96.89 C 84.87 97.23, 85.10 97.57, 85.32 97.91 C 85.54 98.25, 85.75 98.60, 85.97 98.94 C 86.19 99.28, 86.40 99.62, 86.61 99.97 C 86.82 100.32, 87.03 100.67, 87.23 101.02 C 87.43 101.37, 87.63 101.72, 87.83 102.07 C 88.03 102.42, 88.22 102.77, 88.41 103.12 C 88.60 103.47, 88.78 103.83, 88.96 104.18 C 89.14 104.53, 89.33 104.89, 89.5 105.24 C 89.67 105.59, 89.84 105.95, 90.01 106.3 C 90.18 106.65, 90.33 107.01, 90.49 107.36 C 90.65 107.71, 90.81 108.06, 90.96 108.41 C 91.11 108.76, 91.25 109.11, 91.39 109.46 C 91.53 109.81, 91.67 110.15, 91.8 110.5 C 91.93 110.85, 92.07 111.20, 92.19 111.54 C 92.31 111.88, 92.43 112.22, 92.54 112.56 C 92.65 112.90, 92.77 113.23, 92.87 113.57 C 92.98 113.90, 93.08 114.24, 93.17 114.57 C 93.27 114.90, 93.35 115.22, 93.44 115.55 C 93.53 115.88, 93.61 116.20, 93.68 116.52 C 93.76 116.84, 93.82 117.16, 93.89 117.47 C 93.96 117.78, 94.02 118.09, 94.08 118.4 C 94.14 118.71, 94.19 119.01, 94.23 119.31 C 94.28 119.61, 94.31 119.90, 94.35 120.19 C 94.38 120.48, 94.41 120.78, 94.44 121.06 C 94.47 121.34, 94.49 121.63, 94.5 121.9 C 94.51 122.18, 94.52 122.44, 94.52 122.71 C 94.52 122.98, 94.52 123.24, 94.52 123.5 C 94.52 123.76, 94.51 124.00, 94.49 124.25 C 94.47 124.50, 94.45 124.74, 94.42 124.98 C 94.39 125.22, 94.36 125.45, 94.32 125.68 C 94.28 125.91, 94.25 126.12, 94.2 126.34 C 94.15 126.56, 94.10 126.78, 94.04 126.98 C 93.98 127.19, 93.92 127.38, 93.85 127.57 C 93.78 127.76, 93.72 127.96, 93.64 128.14 C 93.56 128.32, 93.48 128.49, 93.39 128.66 C 93.30 128.83, 93.21 129.00, 93.11 129.16 C 93.01 129.32, 92.92 129.47, 92.81 129.61 C 92.70 129.76, 92.59 129.90, 92.47 130.03 C 92.35 130.16, 92.23 130.28, 92.11 130.4 C 91.98 130.52, 91.85 130.63, 91.72 130.74 C 91.59 130.85, 91.45 130.95, 91.31 131.04 C 91.17 131.13, 91.01 131.22, 90.86 131.3 C 90.71 131.38, 90.56 131.46, 90.4 131.52 C 90.24 131.59, 90.08 131.64, 89.91 131.69 C 89.74 131.74, 89.57 131.79, 89.39 131.83 C 89.21 131.87, 89.03 131.89, 88.85 131.92 C 88.67 131.94, 88.48 131.97, 88.29 131.98 C 88.10 131.99, 87.91 131.99, 87.71 131.99 C 87.51 131.99, 87.30 131.98, 87.1 131.96 C 86.89 131.94, 86.69 131.91, 86.48 131.88 C 86.27 131.85, 86.06 131.81, 85.84 131.77 C 85.62 131.73, 85.40 131.68, 85.18 131.62 C 84.96 131.56, 84.74 131.49, 84.51 131.42 C 84.28 131.35, 84.04 131.27, 83.81 131.18 C 83.58 131.09, 83.35 131.01, 83.11 130.91 C 82.87 130.81, 82.63 130.70, 82.39 130.59 C 82.15 130.48, 81.91 130.35, 81.66 130.23 C 81.41 130.10, 81.17 129.98, 80.92 129.84 C 80.67 129.70, 80.41 129.56, 80.16 129.41 C 79.91 129.26, 79.66 129.09, 79.4 128.93 C 79.15 128.77, 78.89 128.61, 78.63 128.43 C 78.37 128.25, 78.12 128.07, 77.86 127.88 C 77.60 127.69, 77.34 127.50, 77.08 127.3 C 76.82 127.10, 76.55 126.90, 76.29 126.69 C 76.03 126.48, 75.76 126.26, 75.5 126.04 C 75.24 125.82, 74.97 125.59, 74.71 125.36 C 74.45 125.13, 74.18 124.89, 73.92 124.65 C 73.66 124.41, 73.39 124.16, 73.13 123.91 C 72.87 123.66, 72.60 123.40, 72.34 123.14 C 72.08 122.88, 71.82 122.61, 71.56 122.34 C 71.30 122.07, 71.04 121.80, 70.78 121.52 C 70.52 121.24, 70.26 120.96, 70 120.67 C 69.74 120.38, 69.49 120.09, 69.24 119.79 C 68.99 119.49, 68.73 119.19, 68.48 118.89 C 68.23 118.59, 67.98 118.28, 67.73 117.97 C 67.48 117.66, 67.23 117.34, 66.99 117.03 C 66.74 116.72, 66.50 116.40, 66.26 116.08 C 66.02 115.76, 65.78 115.43, 65.54 115.1 C 65.30 114.77, 65.07 114.44, 64.84 114.11 C 64.61 113.78, 64.38 113.45, 64.15 113.11 C 63.92 112.77, 63.70 112.43, 63.48 112.09 C 63.26 111.75, 63.04 111.40, 62.82 111.06 C 62.60 110.72, 62.39 110.38, 62.18 110.03 C 61.97 109.68, 61.77 109.33, 61.57 108.98 C 61.37 108.63, 61.17 108.28, 60.97 107.93 C 60.77 107.58, 60.58 107.23, 60.39 106.88 C 60.20 106.53, 60.01 106.17, 59.83 105.82 C 59.65 105.47, 59.47 105.11, 59.3 104.76 C 59.13 104.41, 58.96 104.05, 58.79 103.7 C 58.62 103.35, 58.46 102.99, 58.3 102.64 C 58.14 102.29, 57.99 101.94, 57.84 101.59 C 57.69 101.24, 57.54 100.89, 57.4 100.54 C 57.26 100.19, 57.12 99.85, 56.99 99.5 C 56.86 99.15, 56.73 98.80, 56.61 98.46 C 56.49 98.12, 56.37 97.78, 56.25 97.44 C 56.13 97.10, 56.03 96.77, 55.92 96.43 C 55.81 96.10, 55.71 95.76, 55.62 95.43 C 55.52 95.10, 55.44 94.78, 55.35 94.45 C 55.27 94.13, 55.19 93.80, 55.11 93.48 C 55.03 93.16, 54.96 92.84, 54.9 92.53 C 54.84 92.22, 54.77 91.91, 54.72 91.6 C 54.66 91.29, 54.62 90.99, 54.57 90.69 C 54.52 90.39, 54.48 90.10, 54.45 89.81 C 54.42 89.52, 54.38 89.22, 54.36 88.94 C 54.34 88.66, 54.31 88.38, 54.3 88.1 C 54.28 87.82, 54.28 87.56, 54.27 87.29 C 54.27 87.02, 54.26 86.76, 54.27 86.5 C 54.28 86.24, 54.29 86.00, 54.31 85.75 C 54.33 85.50, 54.34 85.26, 54.37 85.02 C 54.40 84.78, 54.43 84.55, 54.47 84.32 C 54.51 84.09, 54.55 83.88, 54.6 83.66 C 54.65 83.44, 54.69 83.22, 54.75 83.02 C 54.81 82.81, 54.87 82.62, 54.94 82.43 C 55.01 82.24, 55.08 82.04, 55.16 81.86 C 55.24 81.68, 55.31 81.51, 55.4 81.34 C 55.49 81.17, 55.58 81.00, 55.68 80.84 C 55.78 80.68, 55.88 80.53, 55.99 80.39 C 56.10 80.25, 56.20 80.10, 56.32 79.97 C 56.44 79.84, 56.55 79.72, 56.68 79.6 C 56.80 79.48, 56.94 79.37, 57.07 79.26 C 57.20 79.15, 57.35 79.05, 57.49 78.96 Z" stroke="#4AB3F4" stroke-width="1.3"/><path d="M 165.2 90.22 C 165.12 90.17, 165.03 90.11, 164.95 90.07 C 164.86 90.02, 164.78 89.99, 164.69 89.95 C 164.60 89.91, 164.51 89.88, 164.41 89.85 C 164.31 89.82, 164.21 89.79, 164.11 89.77 C 164.01 89.75, 163.91 89.73, 163.81 89.72 C 163.71 89.71, 163.60 89.70, 163.49 89.69 C 163.38 89.68, 163.27 89.68, 163.16 89.68 C 163.05 89.68, 162.94 89.69, 162.82 89.7 C 162.70 89.71, 162.58 89.72, 162.46 89.74 C 162.34 89.76, 162.22 89.78, 162.1 89.81 C 161.98 89.84, 161.85 89.86, 161.72 89.89 C 161.59 89.92, 161.47 89.96, 161.34 90 C 161.21 90.04, 161.08 90.09, 160.95 90.14 C 160.82 90.19, 160.69 90.24, 160.55 90.3 C 160.42 90.36, 160.28 90.42, 160.14 90.48 C 160.00 90.54, 159.87 90.61, 159.73 90.68 C 159.59 90.75, 159.44 90.82, 159.3 90.9 C 159.16 90.98, 159.02 91.06, 158.88 91.15 C 158.74 91.24, 158.59 91.33, 158.44 91.42 C 158.29 91.51, 158.16 91.60, 158.01 91.7 C 157.86 91.80, 157.72 91.90, 157.57 92.01 C 157.42 92.12, 157.27 92.23, 157.12 92.34 C 156.97 92.45, 156.83 92.57, 156.68 92.69 C 156.53 92.81, 156.38 92.94, 156.23 93.06 C 156.08 93.19, 155.93 93.31, 155.78 93.44 C 155.63 93.57, 155.48 93.71, 155.33 93.85 C 155.18 93.99, 155.04 94.13, 154.89 94.27 C 154.74 94.41, 154.59 94.55, 154.44 94.7 C 154.29 94.85, 154.14 95.00, 153.99 95.16 C 153.84 95.31, 153.70 95.47, 153.55 95.63 C 153.40 95.79, 153.26 95.95, 153.11 96.11 C 152.96 96.27, 152.81 96.44, 152.67 96.61 C 152.52 96.78, 152.38 96.94, 152.24 97.11 C 152.10 97.28, 151.96 97.46, 151.82 97.64 C 151.68 97.82, 151.54 97.99, 151.4 98.17 C 151.26 98.35, 151.12 98.53, 150.98 98.71 C 150.84 98.89, 150.71 99.08, 150.58 99.27 C 150.45 99.46, 150.31 99.64, 150.18 99.83 C 150.05 100.02, 149.92 100.21, 149.79 100.4 C 149.66 100.59, 149.54 100.79, 149.41 100.98 C 149.28 101.17, 149.15 101.37, 149.03 101.56 C 148.91 101.75, 148.79 101.95, 148.67 102.15 C 148.55 102.35, 148.44 102.54, 148.32 102.74 C 148.20 102.94, 148.09 103.14, 147.98 103.34 C 147.87 103.54, 147.76 103.74, 147.65 103.94 C 147.54 104.14, 147.44 104.34, 147.34 104.54 C 147.24 104.74, 147.13 104.94, 147.03 105.14 C 146.93 105.34, 146.83 105.54, 146.74 105.74 C 146.65 105.94, 146.56 106.14, 146.47 106.34 C 146.38 106.54, 146.28 106.74, 146.2 106.94 C 146.11 107.14, 146.04 107.33, 145.96 107.53 C 145.88 107.73, 145.80 107.92, 145.72 108.12 C 145.64 108.32, 145.58 108.51, 145.51 108.71 C 145.44 108.91, 145.37 109.10, 145.3 109.29 C 145.24 109.48, 145.18 109.67, 145.12 109.86 C 145.06 110.05, 145.00 110.24, 144.95 110.43 C 144.89 110.62, 144.84 110.80, 144.79 110.99 C 144.74 111.17, 144.70 111.36, 144.66 111.54 C 144.62 111.72, 144.58 111.90, 144.54 112.08 C 144.50 112.26, 144.46 112.43, 144.43 112.6 C 144.40 112.77, 144.38 112.95, 144.35 113.12 C 144.32 113.29, 144.30 113.46, 144.28 113.62 C 144.26 113.78, 144.24 113.95, 144.23 114.11 C 144.22 114.27, 144.21 114.43, 144.2 114.59 C 144.19 114.75, 144.18 114.90, 144.18 115.05 C 144.18 115.20, 144.18 115.35, 144.18 115.5 C 144.18 115.65, 144.19 115.79, 144.2 115.93 C 144.21 116.07, 144.23 116.21, 144.24 116.34 C 144.25 116.47, 144.27 116.61, 144.29 116.74 C 144.31 116.87, 144.33 116.99, 144.36 117.11 C 144.39 117.23, 144.42 117.35, 144.45 117.47 C 144.48 117.59, 144.52 117.70, 144.56 117.81 C 144.60 117.92, 144.64 118.03, 144.68 118.13 C 144.72 118.23, 144.77 118.33, 144.82 118.43 C 144.87 118.53, 144.92 118.62, 144.98 118.71 C 145.03 118.80, 145.09 118.89, 145.15 118.97 C 145.21 119.05, 145.27 119.13, 145.34 119.2 C 145.41 119.28, 145.48 119.35, 145.55 119.42 C 145.62 119.49, 145.69 119.55, 145.77 119.61 C 145.85 119.67, 145.93 119.73, 146.01 119.78 C 146.09 119.83, 146.17 119.89, 146.26 119.93 C 146.34 119.98, 146.43 120.01, 146.52 120.05 C 146.61 120.09, 146.71 120.12, 146.8 120.15 C 146.90 120.18, 146.99 120.21, 147.09 120.23 C 147.19 120.25, 147.30 120.27, 147.4 120.28 C 147.50 120.29, 147.61 120.30, 147.72 120.31 C 147.83 120.32, 147.94 120.32, 148.05 120.32 C 148.16 120.32, 148.27 120.31, 148.39 120.3 C 148.50 120.29, 148.62 120.28, 148.74 120.26 C 148.86 120.24, 148.99 120.22, 149.11 120.19 C 149.23 120.16, 149.35 120.14, 149.48 120.11 C 149.61 120.08, 149.74 120.04, 149.87 120 C 150.00 119.96, 150.13 119.91, 150.26 119.86 C 150.39 119.81, 150.53 119.76, 150.66 119.7 C 150.79 119.64, 150.93 119.58, 151.07 119.52 C 151.21 119.46, 151.34 119.39, 151.48 119.32 C 151.62 119.25, 151.76 119.18, 151.9 119.1 C 152.04 119.02, 152.19 118.94, 152.33 118.85 C 152.47 118.76, 152.62 118.67, 152.76 118.58 C 152.90 118.49, 153.05 118.40, 153.2 118.3 C 153.35 118.20, 153.49 118.10, 153.64 117.99 C 153.79 117.88, 153.93 117.77, 154.08 117.66 C 154.23 117.55, 154.38 117.43, 154.53 117.31 C 154.68 117.19, 154.83 117.06, 154.98 116.94 C 155.13 116.81, 155.27 116.69, 155.42 116.56 C 155.57 116.43, 155.72 116.29, 155.87 116.15 C 156.02 116.01, 156.17 115.87, 156.32 115.73 C 156.47 115.59, 156.62 115.45, 156.77 115.3 C 156.92 115.15, 157.06 115.00, 157.21 114.84 C 157.36 114.69, 157.51 114.53, 157.66 114.37 C 157.81 114.21, 157.95 114.05, 158.1 113.89 C 158.25 113.73, 158.39 113.56, 158.53 113.39 C 158.67 113.22, 158.82 113.06, 158.96 112.89 C 159.10 112.72, 159.25 112.54, 159.39 112.36 C 159.53 112.18, 159.67 112.01, 159.81 111.83 C 159.95 111.65, 160.08 111.47, 160.22 111.29 C 160.36 111.11, 160.50 110.92, 160.63 110.73 C 160.76 110.54, 160.90 110.36, 161.03 110.17 C 161.16 109.98, 161.29 109.79, 161.42 109.6 C 161.55 109.41, 161.68 109.21, 161.8 109.02 C 161.93 108.83, 162.05 108.63, 162.17 108.44 C 162.29 108.25, 162.41 108.05, 162.53 107.85 C 162.65 107.65, 162.77 107.46, 162.89 107.26 C 163.01 107.06, 163.12 106.86, 163.23 106.66 C 163.34 106.46, 163.44 106.26, 163.55 106.06 C 163.66 105.86, 163.77 105.66, 163.87 105.46 C 163.97 105.26, 164.07 105.06, 164.17 104.86 C 164.27 104.66, 164.37 104.46, 164.46 104.26 C 164.56 104.06, 164.65 103.86, 164.74 103.66 C 164.83 103.46, 164.91 103.26, 165 103.06 C 165.09 102.86, 165.17 102.67, 165.25 102.47 C 165.33 102.27, 165.41 102.08, 165.48 101.88 C 165.55 101.68, 165.63 101.49, 165.7 101.29 C 165.77 101.09, 165.84 100.90, 165.9 100.71 C 165.97 100.52, 166.03 100.33, 166.09 100.14 C 166.15 99.95, 166.21 99.76, 166.26 99.57 C 166.31 99.38, 166.36 99.20, 166.41 99.01 C 166.46 98.83, 166.51 98.64, 166.55 98.46 C 166.59 98.28, 166.63 98.10, 166.67 97.92 C 166.71 97.74, 166.74 97.57, 166.77 97.4 C 166.80 97.23, 166.83 97.05, 166.86 96.88 C 166.89 96.71, 166.91 96.54, 166.93 96.38 C 166.95 96.22, 166.97 96.05, 166.98 95.89 C 166.99 95.73, 167.00 95.57, 167.01 95.41 C 167.02 95.25, 167.03 95.10, 167.03 94.95 C 167.03 94.80, 167.02 94.65, 167.02 94.5 C 167.02 94.35, 167.02 94.21, 167.01 94.07 C 167.00 93.93, 166.99 93.79, 166.97 93.66 C 166.95 93.53, 166.93 93.39, 166.91 93.26 C 166.89 93.13, 166.87 93.01, 166.84 92.89 C 166.81 92.77, 166.78 92.65, 166.75 92.53 C 166.72 92.41, 166.69 92.30, 166.65 92.19 C 166.61 92.08, 166.56 91.97, 166.52 91.87 C 166.48 91.77, 166.43 91.67, 166.38 91.57 C 166.33 91.47, 166.28 91.38, 166.23 91.29 C 166.17 91.20, 166.11 91.11, 166.05 91.03 C 165.99 90.95, 165.93 90.88, 165.86 90.8 C 165.80 90.72, 165.73 90.65, 165.66 90.58 C 165.59 90.51, 165.52 90.45, 165.44 90.39 C 165.36 90.33, 165.28 90.27, 165.2 90.22 Z" stroke="#4AB3F4" stroke-width="1.3"/><path d="M 64.8 90.22 C 64.88 90.17, 64.97 90.11, 65.05 90.07 C 65.13 90.02, 65.22 89.99, 65.31 89.95 C 65.40 89.91, 65.49 89.88, 65.59 89.85 C 65.69 89.82, 65.79 89.79, 65.89 89.77 C 65.99 89.75, 66.09 89.73, 66.19 89.72 C 66.29 89.71, 66.40 89.70, 66.51 89.69 C 66.62 89.68, 66.73 89.68, 66.84 89.68 C 66.95 89.68, 67.06 89.69, 67.18 89.7 C 67.30 89.71, 67.42 89.72, 67.54 89.74 C 67.66 89.76, 67.78 89.78, 67.9 89.81 C 68.02 89.84, 68.15 89.86, 68.28 89.89 C 68.41 89.92, 68.53 89.96, 68.66 90 C 68.79 90.04, 68.92 90.09, 69.05 90.14 C 69.18 90.19, 69.31 90.24, 69.45 90.3 C 69.59 90.36, 69.72 90.42, 69.86 90.48 C 70.00 90.54, 70.13 90.61, 70.27 90.68 C 70.41 90.75, 70.56 90.82, 70.7 90.9 C 70.84 90.98, 70.98 91.06, 71.12 91.15 C 71.26 91.24, 71.42 91.33, 71.56 91.42 C 71.70 91.51, 71.84 91.60, 71.99 91.7 C 72.13 91.80, 72.28 91.90, 72.43 92.01 C 72.58 92.12, 72.73 92.23, 72.88 92.34 C 73.03 92.45, 73.17 92.57, 73.32 92.69 C 73.47 92.81, 73.62 92.94, 73.77 93.06 C 73.92 93.19, 74.07 93.31, 74.22 93.44 C 74.37 93.57, 74.52 93.71, 74.67 93.85 C 74.82 93.99, 74.96 94.13, 75.11 94.27 C 75.26 94.41, 75.41 94.55, 75.56 94.7 C 75.71 94.85, 75.86 95.00, 76.01 95.16 C 76.16 95.31, 76.30 95.47, 76.45 95.63 C 76.60 95.79, 76.74 95.95, 76.89 96.11 C 77.04 96.27, 77.19 96.44, 77.33 96.61 C 77.47 96.78, 77.62 96.94, 77.76 97.11 C 77.90 97.28, 78.04 97.46, 78.18 97.64 C 78.32 97.82, 78.46 97.99, 78.6 98.17 C 78.74 98.35, 78.88 98.53, 79.02 98.71 C 79.16 98.89, 79.29 99.08, 79.42 99.27 C 79.55 99.46, 79.69 99.64, 79.82 99.83 C 79.95 100.02, 80.08 100.21, 80.21 100.4 C 80.34 100.59, 80.46 100.79, 80.59 100.98 C 80.72 101.17, 80.85 101.37, 80.97 101.56 C 81.09 101.75, 81.21 101.95, 81.33 102.15 C 81.45 102.35, 81.57 102.54, 81.68 102.74 C 81.80 102.94, 81.91 103.14, 82.02 103.34 C 82.13 103.54, 82.24 103.74, 82.35 103.94 C 82.46 104.14, 82.56 104.34, 82.66 104.54 C 82.76 104.74, 82.87 104.94, 82.97 105.14 C 83.07 105.34, 83.17 105.54, 83.26 105.74 C 83.35 105.94, 83.44 106.14, 83.53 106.34 C 83.62 106.54, 83.72 106.74, 83.8 106.94 C 83.88 107.14, 83.96 107.33, 84.04 107.53 C 84.12 107.73, 84.20 107.92, 84.28 108.12 C 84.36 108.32, 84.42 108.51, 84.49 108.71 C 84.56 108.91, 84.64 109.10, 84.7 109.29 C 84.77 109.48, 84.82 109.67, 84.88 109.86 C 84.94 110.05, 85.00 110.24, 85.05 110.43 C 85.10 110.62, 85.16 110.80, 85.21 110.99 C 85.26 111.17, 85.30 111.36, 85.34 111.54 C 85.38 111.72, 85.42 111.90, 85.46 112.08 C 85.50 112.26, 85.54 112.43, 85.57 112.6 C 85.60 112.77, 85.63 112.95, 85.65 113.12 C 85.68 113.29, 85.70 113.46, 85.72 113.62 C 85.74 113.78, 85.76 113.95, 85.77 114.11 C 85.78 114.27, 85.79 114.43, 85.8 114.59 C 85.81 114.75, 85.82 114.90, 85.82 115.05 C 85.82 115.20, 85.82 115.35, 85.82 115.5 C 85.82 115.65, 85.81 115.79, 85.8 115.93 C 85.79 116.07, 85.78 116.21, 85.76 116.34 C 85.75 116.47, 85.73 116.61, 85.71 116.74 C 85.69 116.87, 85.67 116.99, 85.64 117.11 C 85.61 117.23, 85.58 117.35, 85.55 117.47 C 85.52 117.59, 85.48 117.70, 85.44 117.81 C 85.40 117.92, 85.36 118.03, 85.32 118.13 C 85.28 118.23, 85.23 118.33, 85.18 118.43 C 85.13 118.53, 85.08 118.62, 85.02 118.71 C 84.96 118.80, 84.91 118.89, 84.85 118.97 C 84.79 119.05, 84.73 119.13, 84.66 119.2 C 84.59 119.28, 84.52 119.35, 84.45 119.42 C 84.38 119.49, 84.31 119.55, 84.23 119.61 C 84.15 119.67, 84.07 119.73, 83.99 119.78 C 83.91 119.83, 83.82 119.89, 83.74 119.93 C 83.66 119.98, 83.57 120.01, 83.48 120.05 C 83.39 120.09, 83.30 120.12, 83.2 120.15 C 83.11 120.18, 83.01 120.21, 82.91 120.23 C 82.81 120.25, 82.70 120.27, 82.6 120.28 C 82.49 120.29, 82.39 120.30, 82.28 120.31 C 82.17 120.32, 82.06 120.32, 81.95 120.32 C 81.84 120.32, 81.72 120.31, 81.61 120.3 C 81.50 120.29, 81.38 120.28, 81.26 120.26 C 81.14 120.24, 81.01 120.22, 80.89 120.19 C 80.77 120.16, 80.65 120.14, 80.52 120.11 C 80.39 120.08, 80.26 120.04, 80.13 120 C 80.00 119.96, 79.87 119.91, 79.74 119.86 C 79.61 119.81, 79.47 119.76, 79.34 119.7 C 79.21 119.64, 79.07 119.58, 78.93 119.52 C 78.79 119.46, 78.66 119.39, 78.52 119.32 C 78.38 119.25, 78.24 119.18, 78.1 119.1 C 77.96 119.02, 77.81 118.94, 77.67 118.85 C 77.53 118.76, 77.38 118.67, 77.24 118.58 C 77.09 118.49, 76.95 118.40, 76.8 118.3 C 76.65 118.20, 76.51 118.10, 76.36 117.99 C 76.21 117.88, 76.07 117.77, 75.92 117.66 C 75.77 117.55, 75.62 117.43, 75.47 117.31 C 75.32 117.19, 75.17 117.06, 75.02 116.94 C 74.87 116.81, 74.73 116.69, 74.58 116.56 C 74.43 116.43, 74.28 116.29, 74.13 116.15 C 73.98 116.01, 73.83 115.87, 73.68 115.73 C 73.53 115.59, 73.38 115.45, 73.23 115.3 C 73.08 115.15, 72.94 115.00, 72.79 114.84 C 72.64 114.69, 72.49 114.53, 72.34 114.37 C 72.19 114.21, 72.05 114.05, 71.9 113.89 C 71.76 113.73, 71.61 113.56, 71.47 113.39 C 71.33 113.22, 71.18 113.06, 71.04 112.89 C 70.90 112.72, 70.75 112.54, 70.61 112.36 C 70.47 112.18, 70.33 112.01, 70.19 111.83 C 70.05 111.65, 69.92 111.47, 69.78 111.29 C 69.64 111.11, 69.51 110.92, 69.37 110.73 C 69.23 110.54, 69.10 110.36, 68.97 110.17 C 68.84 109.98, 68.71 109.79, 68.58 109.6 C 68.45 109.41, 68.33 109.21, 68.2 109.02 C 68.08 108.83, 67.95 108.63, 67.83 108.44 C 67.71 108.25, 67.59 108.05, 67.47 107.85 C 67.35 107.65, 67.23 107.46, 67.11 107.26 C 66.99 107.06, 66.88 106.86, 66.77 106.66 C 66.66 106.46, 66.56 106.26, 66.45 106.06 C 66.34 105.86, 66.23 105.66, 66.13 105.46 C 66.03 105.26, 65.93 105.06, 65.83 104.86 C 65.73 104.66, 65.64 104.46, 65.54 104.26 C 65.45 104.06, 65.35 103.86, 65.26 103.66 C 65.17 103.46, 65.09 103.26, 65 103.06 C 64.91 102.86, 64.83 102.67, 64.75 102.47 C 64.67 102.27, 64.59 102.08, 64.52 101.88 C 64.44 101.68, 64.37 101.49, 64.3 101.29 C 64.23 101.09, 64.16 100.90, 64.1 100.71 C 64.03 100.52, 63.97 100.33, 63.91 100.14 C 63.85 99.95, 63.79 99.76, 63.74 99.57 C 63.69 99.38, 63.64 99.20, 63.59 99.01 C 63.54 98.83, 63.49 98.64, 63.45 98.46 C 63.41 98.28, 63.37 98.10, 63.33 97.92 C 63.29 97.74, 63.26 97.57, 63.23 97.4 C 63.20 97.23, 63.17 97.05, 63.14 96.88 C 63.11 96.71, 63.09 96.54, 63.07 96.38 C 63.05 96.22, 63.03 96.05, 63.02 95.89 C 63.01 95.73, 63.00 95.57, 62.99 95.41 C 62.98 95.25, 62.97 95.10, 62.97 94.95 C 62.97 94.80, 62.98 94.65, 62.98 94.5 C 62.98 94.35, 62.98 94.21, 62.99 94.07 C 63.00 93.93, 63.01 93.79, 63.03 93.66 C 63.05 93.53, 63.07 93.39, 63.09 93.26 C 63.11 93.13, 63.13 93.01, 63.16 92.89 C 63.19 92.77, 63.22 92.65, 63.25 92.53 C 63.28 92.41, 63.31 92.30, 63.35 92.19 C 63.39 92.08, 63.43 91.97, 63.48 91.87 C 63.52 91.77, 63.57 91.67, 63.62 91.57 C 63.67 91.47, 63.72 91.38, 63.77 91.29 C 63.83 91.20, 63.89 91.11, 63.95 91.03 C 64.01 90.95, 64.08 90.88, 64.14 90.8 C 64.20 90.72, 64.27 90.65, 64.34 90.58 C 64.41 90.51, 64.48 90.45, 64.56 90.39 C 64.64 90.33, 64.72 90.27, 64.8 90.22 Z" stroke="#4AB3F4" stroke-width="1.3"/>
</svg>
