<?xml version="1.0" encoding="UTF-8" standalone="no"?>
<!-- Created with Inkscape (http://www.inkscape.org/) -->

<svg
   width="411.18103mm"
   height="75.546478mm"
   viewBox="0 0 411.18103 75.546478"
   version="1.1"
   id="svg1"
   inkscape:version="1.4 (e7c3feb100, 2024-10-09)"
   sodipodi:docname="text_only.svg"
   xmlns:inkscape="http://www.inkscape.org/namespaces/inkscape"
   xmlns:sodipodi="http://sodipodi.sourceforge.net/DTD/sodipodi-0.dtd"
   xmlns="http://www.w3.org/2000/svg"
   xmlns:svg="http://www.w3.org/2000/svg">
  <sodipodi:namedview
     id="namedview1"
     pagecolor="#ffffff"
     bordercolor="#000000"
     borderopacity="0.25"
     inkscape:showpageshadow="2"
     inkscape:pageopacity="0.0"
     inkscape:pagecheckerboard="0"
     inkscape:deskcolor="#d1d1d1"
     inkscape:document-units="mm"
     inkscape:zoom="0.33136911"
     inkscape:cx="368.1695"
     inkscape:cy="547.72758"
     inkscape:window-width="1920"
     inkscape:window-height="1080"
     inkscape:window-x="0"
     inkscape:window-y="0"
     inkscape:window-maximized="1"
     inkscape:current-layer="layer1" />
  <defs
     id="defs1" />
  <g
     inkscape:label="Layer 1"
     inkscape:groupmode="layer"
     id="layer1"
     transform="translate(-150.01875,-78.052083)">
    <g
       id="g19"
       transform="matrix(0.26458333,0,0,0.26458333,-206.45437,-186.06558)">
      <g
         id="g11">
        <path
           class="cls-60"
           d="m 1497.28,1046.03 h -9.06 c -2.31,-6.41 -6.28,-12.91 -11.92,-19.48 -5.64,-6.57 -11.25,-10.45 -16.81,-11.64 -2.39,-0.55 -5.7,-0.89 -9.96,-1.01 -4.25,-0.12 -7.77,-0.18 -10.55,-0.18 h -24.56 v 65.21 h 17.41 c 4.37,0 8.34,-0.52 11.92,-1.55 3.58,-1.03 6.83,-3.02 9.78,-5.96 1.83,-1.83 3.68,-5.05 5.54,-9.66 1.87,-4.61 3.08,-8.62 3.64,-12.04 h 9.06 v 70.57 h -9.06 c -0.48,-3.34 -1.69,-7.53 -3.64,-12.58 -1.95,-5.05 -3.8,-8.52 -5.54,-10.43 -2.62,-2.86 -5.72,-4.83 -9.3,-5.9 -3.58,-1.07 -7.71,-1.61 -12.4,-1.61 h -17.41 v 48.76 c 0,5.09 0.38,9.12 1.13,12.1 0.75,2.98 2.17,5.27 4.23,6.85 1.99,1.51 4.71,2.5 8.17,2.98 3.46,0.48 8.17,0.71 14.13,0.71 2.78,0 6.12,-0.04 10.01,-0.12 3.89,-0.08 7.31,-0.32 10.25,-0.72 3.34,-0.4 6.46,-0.99 9.36,-1.79 2.9,-0.79 5.07,-1.95 6.5,-3.46 3.82,-3.89 8.11,-9.83 12.87,-17.82 4.77,-7.99 7.91,-13.97 9.42,-17.94 h 8.7 l -3.22,52.69 H 1347.3 v -9.3 c 2.22,-0.16 5.25,-0.48 9.06,-0.95 3.82,-0.48 6.52,-1.03 8.11,-1.67 3.02,-1.27 5.05,-2.88 6.08,-4.83 1.03,-1.95 1.55,-4.43 1.55,-7.45 v -119.33 c 0,-2.86 -0.44,-5.22 -1.31,-7.09 -0.87,-1.87 -2.98,-3.56 -6.32,-5.07 -2.07,-0.95 -4.97,-1.83 -8.7,-2.62 -3.74,-0.79 -6.56,-1.31 -8.46,-1.55 v -9.3 h 149.97 V 1046 Z"
           id="path2"
           style="fill:#004c98;stroke-width:0px" />
        <path
           class="cls-60"
           d="m 1665.6,1021.71 c 8.34,7.63 14.96,16.85 19.85,27.66 4.89,10.81 7.33,23.13 7.33,36.96 0,19.63 -4.91,36.88 -14.72,51.74 -9.82,14.86 -23.7,25.55 -41.67,32.07 0.24,9.46 3.1,17.64 8.58,24.56 5.48,6.91 11.96,10.37 19.43,10.37 4.61,0 8.64,-0.28 12.1,-0.83 3.46,-0.56 6.58,-1.19 9.36,-1.91 v 10.49 c -4.53,1.91 -11.25,3.83 -20.15,5.78 -8.9,1.95 -18.24,2.92 -28.01,2.92 -13.35,0 -24.34,-3.99 -32.96,-11.98 -8.63,-7.99 -13.45,-19.13 -14.48,-33.44 -11.29,-1.11 -21.78,-3.9 -31.47,-8.34 -9.7,-4.45 -18.24,-10.45 -25.63,-18 -7.23,-7.47 -12.98,-16.33 -17.23,-26.58 -4.25,-10.25 -6.38,-21.54 -6.38,-33.86 0,-13.83 2.36,-26.36 7.09,-37.61 4.73,-11.24 11.22,-20.88 19.49,-28.91 8.18,-7.87 17.9,-13.93 29.15,-18.18 11.24,-4.25 23.23,-6.38 35.94,-6.38 12.71,0 24.5,2.07 35.59,6.2 11.09,4.13 20.68,9.89 28.79,17.29 z m -30.64,120.99 c 3.58,-7.24 6.16,-15.43 7.75,-24.58 1.59,-9.15 2.38,-19.49 2.38,-31.02 0,-9.78 -0.7,-19.31 -2.09,-28.57 -1.39,-9.26 -3.76,-17.52 -7.09,-24.75 -3.42,-7.24 -7.95,-13.04 -13.59,-17.42 -5.64,-4.37 -12.68,-6.56 -21.1,-6.56 -14.38,0 -25.31,6.82 -32.78,20.46 -7.47,13.64 -11.21,32.91 -11.21,57.8 0,10.58 0.81,20.56 2.44,29.95 1.63,9.38 4.19,17.58 7.69,24.58 3.58,7.08 8.11,12.59 13.59,16.52 5.48,3.94 12.24,5.9 20.27,5.9 8.03,0 14.62,-1.99 20.27,-5.96 5.64,-3.98 10.13,-9.43 13.47,-16.35 z"
           id="path3"
           style="fill:#004c98;stroke-width:0px" />
        <path
           class="cls-60"
           d="m 1877.58,1012.18 c -2.31,0.24 -5.62,0.78 -9.95,1.61 -4.33,0.83 -7.97,2.29 -10.91,4.35 -3.02,1.99 -5.15,5.56 -6.38,10.73 -1.23,5.17 -1.85,12.92 -1.85,23.25 v 62.94 c 0,18.52 -6.28,33.42 -18.84,44.71 -12.56,11.29 -29.17,16.93 -49.83,16.93 -24.08,0 -42.72,-5.44 -55.91,-16.33 -13.19,-10.89 -19.79,-26.07 -19.79,-45.54 v -86.55 c 0,-2.78 -0.54,-5.17 -1.61,-7.15 -1.07,-1.99 -3.12,-3.77 -6.14,-5.36 -2.07,-1.03 -4.61,-1.87 -7.63,-2.5 -3.02,-0.64 -5.48,-1.07 -7.39,-1.31 v -9.06 h 88.69 v 9.06 c -2.54,0.16 -5.13,0.46 -7.75,0.89 -2.62,0.44 -5.29,1.09 -7.99,1.97 -3.02,0.95 -5.05,2.54 -6.08,4.77 -1.03,2.23 -1.55,4.73 -1.55,7.51 v 85.36 c 0,16.77 3.69,28.97 11.07,36.6 7.38,7.63 18.09,11.44 32.14,11.44 14.05,0 24.64,-4.21 32.5,-12.64 7.86,-8.42 11.79,-20.82 11.79,-37.19 v -57.34 c 0,-10.17 -0.7,-17.78 -2.09,-22.83 -1.39,-5.05 -3.52,-8.68 -6.38,-10.91 -2.07,-1.75 -5.66,-3.34 -10.79,-4.77 -5.13,-1.43 -8.72,-2.3 -10.79,-2.62 v -9.3 h 73.43 v 9.3 z"
           id="path4"
           style="fill:#004c98;stroke-width:0px" />
        <path
           class="cls-60"
           d="m 1975.48,1172.04 h -93.82 v -9.3 c 2.15,-0.16 5.31,-0.4 9.48,-0.71 4.17,-0.32 7.05,-0.79 8.64,-1.43 2.94,-1.19 4.95,-2.76 6.02,-4.71 1.07,-1.95 1.61,-4.43 1.61,-7.45 v -119.93 c 0,-2.7 -0.52,-5.09 -1.55,-7.15 -1.03,-2.07 -3.06,-3.73 -6.08,-5.01 -1.91,-0.79 -4.73,-1.61 -8.46,-2.44 -3.74,-0.83 -6.96,-1.41 -9.66,-1.73 v -9.3 h 93.82 v 9.3 c -2.38,0.24 -5.36,0.58 -8.94,1.01 -3.58,0.44 -6.6,1.05 -9.06,1.85 -3.1,1.03 -5.17,2.64 -6.2,4.83 -1.03,2.19 -1.55,4.67 -1.55,7.45 v 119.81 c 0,2.86 0.54,5.31 1.61,7.33 1.07,2.03 3.12,3.68 6.14,4.95 1.67,0.72 4.43,1.41 8.29,2.09 3.85,0.68 7.09,1.09 9.72,1.25 v 9.3 z"
           id="path5"
           style="fill:#004c98;stroke-width:0px" />
        <path
           class="cls-60"
           d="m 2141.9,1117.8 -3.34,54.24 h -155.81 v -9.3 c 2.78,-0.24 6.04,-0.61 9.78,-1.13 3.73,-0.52 6.2,-1.01 7.39,-1.49 2.86,-1.11 4.85,-2.66 5.96,-4.65 1.11,-1.99 1.67,-4.53 1.67,-7.63 v -119.33 c 0,-2.86 -0.44,-5.22 -1.31,-7.09 -0.87,-1.87 -2.98,-3.56 -6.32,-5.07 -2.46,-1.11 -5.42,-2.01 -8.88,-2.68 -3.46,-0.67 -6.22,-1.17 -8.29,-1.49 v -9.3 h 92.87 v 9.3 c -2.54,0.24 -5.54,0.58 -9,1.01 -3.46,0.44 -6.46,1.05 -9,1.85 -3.1,1.03 -5.17,2.64 -6.2,4.83 -1.03,2.19 -1.55,4.67 -1.55,7.45 v 111.22 c 0,5.25 0.36,9.38 1.07,12.4 0.71,3.02 2.1,5.25 4.17,6.68 2.07,1.51 4.95,2.48 8.64,2.92 3.7,0.44 8.8,0.66 15.32,0.66 6.52,0 12.54,-0.38 18.54,-1.13 6,-0.75 10.31,-2.4 12.93,-4.95 4.05,-4.05 8.21,-9.75 12.46,-17.11 4.25,-7.35 7.65,-14.09 10.19,-20.21 h 8.7 z"
           id="path6"
           style="fill:#004c98;stroke-width:0px" />
        <path
           class="cls-60"
           d="m 2237.57,1172.04 h -93.82 v -9.3 c 2.15,-0.16 5.31,-0.4 9.48,-0.71 4.17,-0.32 7.05,-0.79 8.64,-1.43 2.94,-1.19 4.95,-2.76 6.02,-4.71 1.07,-1.95 1.61,-4.43 1.61,-7.45 v -119.93 c 0,-2.7 -0.52,-5.09 -1.55,-7.15 -1.03,-2.07 -3.06,-3.73 -6.08,-5.01 -1.91,-0.79 -4.73,-1.61 -8.46,-2.44 -3.74,-0.83 -6.96,-1.41 -9.66,-1.73 v -9.3 h 93.82 v 9.3 c -2.38,0.24 -5.36,0.58 -8.94,1.01 -3.58,0.44 -6.6,1.05 -9.06,1.85 -3.1,1.03 -5.17,2.64 -6.2,4.83 -1.03,2.19 -1.55,4.67 -1.55,7.45 v 119.81 c 0,2.86 0.54,5.31 1.61,7.33 1.07,2.03 3.12,3.68 6.14,4.95 1.67,0.72 4.43,1.41 8.29,2.09 3.85,0.68 7.09,1.09 9.72,1.25 v 9.3 z"
           id="path7"
           style="fill:#004c98;stroke-width:0px" />
        <path
           class="cls-60"
           d="m 2392.11,1094.43 c 5.08,3.5 9.22,7.89 12.4,13.17 3.18,5.29 4.77,11.5 4.77,18.66 0,8.58 -1.81,15.84 -5.42,21.76 -3.62,5.92 -8.8,10.59 -15.56,14.01 -7.15,3.66 -15.4,6.24 -24.74,7.75 -9.34,1.51 -20.33,2.27 -32.96,2.27 h -87.86 v -9.3 c 2.46,-0.24 5.56,-0.6 9.3,-1.07 3.73,-0.48 6.36,-1.03 7.87,-1.67 2.94,-1.19 4.95,-2.76 6.02,-4.71 1.07,-1.95 1.61,-4.47 1.61,-7.57 v -119.21 c 0,-2.86 -0.44,-5.25 -1.31,-7.15 -0.87,-1.9 -2.98,-3.58 -6.32,-5.01 -2.46,-1.03 -5.33,-1.89 -8.58,-2.56 -3.26,-0.67 -6.12,-1.21 -8.58,-1.61 v -9.3 h 91.91 c 23.13,0 39.82,3.18 50.07,9.54 10.25,6.36 15.38,15.74 15.38,28.13 0,5.72 -1.15,10.75 -3.46,15.08 -2.31,4.33 -5.6,8.09 -9.9,11.27 -3.89,2.94 -8.54,5.48 -13.95,7.63 -5.4,2.15 -11.21,3.93 -17.4,5.36 v 2.27 c 6.2,0.64 12.64,2.01 19.31,4.11 6.68,2.11 12.48,4.83 17.41,8.17 z m -38.38,-50.9 c 0,-9.38 -2.64,-16.69 -7.93,-21.93 -5.29,-5.25 -13.21,-7.87 -23.78,-7.87 -1.51,0 -3.48,0.06 -5.9,0.18 -2.42,0.12 -4.51,0.22 -6.26,0.3 v 62.71 h 6.2 c 12.88,0 22.37,-3 28.49,-9 6.12,-6 9.18,-14.13 9.18,-24.38 z m 8.34,81.24 c 0,-11.78 -3.5,-20.82 -10.49,-27.1 -6.99,-6.29 -17.05,-9.43 -30.16,-9.43 -1.51,0 -3.52,0.06 -6.02,0.18 -2.5,0.12 -4.35,0.22 -5.54,0.3 v 61.97 c 0.71,2.95 2.94,5.43 6.68,7.46 3.73,2.03 8.26,3.04 13.59,3.04 9.46,0 17.15,-3.18 23.07,-9.55 5.92,-6.37 8.88,-15.32 8.88,-26.87 z"
           id="path8"
           style="fill:#004c98;stroke-width:0px" />
        <path
           class="cls-60"
           d="m 2598.3,1172.04 h -64.91 c -11.2,-17.17 -20.51,-30.84 -27.93,-41.01 -7.43,-10.17 -16.66,-21.93 -27.7,-35.29 h -6.54 v 51.38 c 0,2.86 0.54,5.29 1.61,7.27 1.07,1.99 3.12,3.66 6.14,5.01 1.51,0.64 3.87,1.29 7.09,1.97 3.22,0.68 5.98,1.13 8.29,1.37 v 9.3 h -90.24 v -9.3 c 2.3,-0.24 5.34,-0.58 9.12,-1.01 3.77,-0.44 6.46,-0.97 8.05,-1.61 3.02,-1.27 5.05,-2.88 6.08,-4.83 1.03,-1.95 1.55,-4.43 1.55,-7.45 v -119.33 c 0,-2.86 -0.44,-5.25 -1.31,-7.15 -0.87,-1.9 -2.98,-3.58 -6.32,-5.01 -2.54,-1.03 -5.54,-1.91 -9,-2.62 -3.46,-0.71 -6.18,-1.23 -8.17,-1.55 v -9.3 H 2499 c 21.22,0 37.33,3.32 48.34,9.95 11.01,6.64 16.51,16.67 16.51,30.1 0,11.84 -3.4,21.36 -10.19,28.55 -6.8,7.19 -17.15,12.81 -31.06,16.87 5.4,6.99 11.7,15.1 18.89,24.32 7.19,9.22 14.68,18.64 22.47,28.25 2.46,3.1 5.82,6.9 10.07,11.38 4.25,4.49 8.01,7.25 11.27,8.29 1.83,0.56 4.15,1.03 6.97,1.43 2.82,0.4 4.83,0.64 6.02,0.71 v 9.3 z m -81.18,-125.77 c 0,-11.28 -3.16,-19.53 -9.48,-24.74 -6.32,-5.2 -15.32,-7.81 -27,-7.81 h -9.42 v 70.81 h 9.06 c 11.68,0 20.74,-3.06 27.18,-9.18 6.44,-6.12 9.66,-15.81 9.66,-29.09 z"
           id="path9"
           style="fill:#004c98;stroke-width:0px" />
        <path
           class="cls-60"
           d="m 2697.44,1172.04 h -93.82 v -9.3 c 2.15,-0.16 5.31,-0.4 9.48,-0.71 4.17,-0.32 7.05,-0.79 8.64,-1.43 2.94,-1.19 4.95,-2.76 6.02,-4.71 1.07,-1.95 1.61,-4.43 1.61,-7.45 v -119.93 c 0,-2.7 -0.52,-5.09 -1.55,-7.15 -1.03,-2.07 -3.06,-3.73 -6.08,-5.01 -1.91,-0.79 -4.73,-1.61 -8.46,-2.44 -3.74,-0.83 -6.96,-1.41 -9.66,-1.73 v -9.3 h 93.82 v 9.3 c -2.38,0.24 -5.36,0.58 -8.94,1.01 -3.58,0.44 -6.6,1.05 -9.06,1.85 -3.1,1.03 -5.17,2.64 -6.2,4.83 -1.03,2.19 -1.55,4.67 -1.55,7.45 v 119.81 c 0,2.86 0.54,5.31 1.61,7.33 1.07,2.03 3.12,3.68 6.14,4.95 1.67,0.72 4.43,1.41 8.29,2.09 3.85,0.68 7.09,1.09 9.72,1.25 v 9.3 z"
           id="path10"
           style="fill:#004c98;stroke-width:0px" />
        <path
           class="cls-60"
           d="m 2900.56,1172.04 h -92.15 v -9.3 c 4.28,-0.32 9.32,-1.09 15.11,-2.32 5.79,-1.23 8.69,-2.76 8.69,-4.59 0,-0.64 -0.06,-1.35 -0.18,-2.15 -0.12,-0.79 -0.46,-1.87 -1.01,-3.22 l -14.44,-35.05 h -58.4 c -1.34,3.26 -2.83,7.08 -4.45,11.44 -1.62,4.37 -3.02,8.27 -4.21,11.68 -1.5,4.45 -2.39,7.67 -2.67,9.66 -0.28,1.99 -0.42,3.38 -0.42,4.17 0,2.54 1.92,4.71 5.78,6.5 3.85,1.79 10.26,3.08 19.24,3.87 v 9.3 h -69.38 v -9.3 c 2.62,-0.16 5.58,-0.58 8.88,-1.25 3.3,-0.67 5.9,-1.61 7.81,-2.8 3.26,-1.91 6.02,-4.25 8.29,-7.03 2.27,-2.78 4.15,-6.08 5.66,-9.89 9.22,-22.33 18.46,-44.7 27.72,-67.12 9.26,-22.41 19.49,-47.13 30.7,-74.15 h 23.84 c 15.58,38.31 27.78,68.59 36.6,90.84 8.82,22.25 16.33,40.69 22.53,55.31 1.03,2.38 2.34,4.55 3.94,6.5 1.59,1.95 3.85,3.8 6.79,5.54 2.22,1.27 4.81,2.23 7.75,2.86 2.94,0.64 5.6,1.03 7.99,1.19 v 9.3 z m -88.89,-68.43 -24.48,-61.15 -24.12,61.15 h 48.61 z"
           id="path11"
           style="fill:#004c98;stroke-width:0px" />
      </g>
      <g
         id="g18">
        <path
           class="cls-60"
           d="m 2138.02,1208.26 c -1.02,0.04 -2.59,0.33 -4.7,0.87 -2.11,0.55 -3.62,1.11 -4.53,1.69 -1.31,0.91 -2.19,2.66 -2.65,5.25 -0.46,2.59 -0.68,5.86 -0.68,9.83 v 56.77 h -4.75 l -46.99,-63.43 v 39.99 c 0,4.48 0.28,7.92 0.85,10.33 0.56,2.4 1.43,4.12 2.59,5.14 0.84,0.8 2.57,1.55 5.19,2.24 2.62,0.69 4.35,1.06 5.19,1.09 v 3.88 h -31.8 v -3.88 c 0.98,-0.07 2.64,-0.43 4.97,-1.07 2.33,-0.64 3.79,-1.21 4.37,-1.72 1.27,-1.02 2.15,-2.58 2.62,-4.67 0.47,-2.09 0.71,-5.67 0.71,-10.74 v -38.19 c 0,-1.67 -0.29,-3.35 -0.87,-5.03 -0.58,-1.67 -1.37,-2.97 -2.35,-3.88 -1.31,-1.2 -3.09,-2.23 -5.33,-3.09 -2.24,-0.85 -4.05,-1.32 -5.44,-1.39 v -3.88 h 22.15 l 43.58,59.11 v -36.87 c 0,-4.52 -0.29,-7.98 -0.87,-10.41 -0.58,-2.42 -1.42,-4.03 -2.51,-4.83 -1.02,-0.69 -2.69,-1.36 -5,-2.02 -2.31,-0.66 -4.07,-1.02 -5.27,-1.09 v -3.88 h 31.53 v 3.88 z"
           id="path12"
           style="fill:#004c98;stroke-width:0px" />
        <path
           class="cls-60"
           d="m 2254.25,1259.07 -1.48,22.84 h -64.36 v -3.88 c 1.09,-0.07 2.55,-0.23 4.37,-0.46 1.82,-0.24 3,-0.48 3.55,-0.74 1.17,-0.55 1.98,-1.26 2.43,-2.13 0.45,-0.87 0.68,-1.98 0.68,-3.33 v -55.73 c 0,-1.2 -0.2,-2.27 -0.6,-3.2 -0.4,-0.93 -1.24,-1.68 -2.51,-2.27 -0.98,-0.47 -2.3,-0.89 -3.96,-1.26 -1.66,-0.36 -2.98,-0.58 -3.96,-0.66 v -3.88 h 59.99 v 18.69 h -4.1 c -0.73,-2.77 -2.3,-5.71 -4.73,-8.82 -2.42,-3.11 -4.73,-4.82 -6.91,-5.11 -1.13,-0.15 -2.48,-0.25 -4.04,-0.33 -1.57,-0.07 -3.35,-0.11 -5.35,-0.11 h -12.18 v 30.81 h 8.74 c 2.8,0 4.85,-0.26 6.15,-0.79 1.29,-0.53 2.43,-1.41 3.41,-2.65 0.8,-1.06 1.48,-2.47 2.05,-4.23 0.56,-1.77 0.94,-3.43 1.12,-5 h 4.1 v 30.38 h -4.1 c -0.15,-1.75 -0.54,-3.6 -1.18,-5.55 -0.64,-1.95 -1.3,-3.36 -1.99,-4.23 -1.13,-1.42 -2.41,-2.35 -3.85,-2.79 -1.44,-0.44 -3.34,-0.66 -5.71,-0.66 h -8.74 v 23.24 c 0,2.33 0.16,4.16 0.49,5.51 0.33,1.34 0.97,2.36 1.91,3.05 0.95,0.69 2.24,1.14 3.88,1.34 1.64,0.2 3.97,0.3 6.99,0.3 h 4.75 c 1.97,0 3.62,-0.07 4.97,-0.22 1.38,-0.15 2.81,-0.41 4.29,-0.79 1.48,-0.38 2.52,-0.9 3.14,-1.56 1.67,-1.75 3.43,-4.4 5.27,-7.95 1.84,-3.55 3.01,-6.16 3.53,-7.84 h 3.93 z"
           id="path13"
           style="fill:#004c98;stroke-width:0px" />
        <path
           class="cls-60"
           d="m 2369.98,1225.42 h -3.77 c -0.33,-1.31 -0.92,-2.87 -1.78,-4.67 -0.86,-1.8 -1.82,-3.51 -2.87,-5.11 -1.1,-1.67 -2.29,-3.14 -3.59,-4.4 -1.3,-1.26 -2.55,-1.98 -3.75,-2.16 -1.13,-0.15 -2.56,-0.25 -4.27,-0.33 -1.72,-0.07 -3.31,-0.11 -4.76,-0.11 h -3.18 v 62.01 c 0,1.2 0.25,2.3 0.76,3.31 0.51,1 1.4,1.78 2.68,2.32 0.65,0.25 2.03,0.6 4.12,1.04 2.09,0.44 3.72,0.67 4.89,0.71 v 3.88 h -36.61 v -3.88 c 1.02,-0.07 2.58,-0.22 4.67,-0.44 2.09,-0.22 3.54,-0.49 4.34,-0.82 1.2,-0.47 2.08,-1.16 2.65,-2.05 0.57,-0.89 0.85,-2.08 0.85,-3.58 v -62.5 h -3.17 c -1.13,0 -2.53,0.03 -4.21,0.08 -1.68,0.05 -3.28,0.17 -4.81,0.36 -1.2,0.15 -2.45,0.87 -3.74,2.16 -1.29,1.29 -2.49,2.76 -3.58,4.4 -1.09,1.64 -2.06,3.38 -2.9,5.22 -0.84,1.84 -1.42,3.36 -1.75,4.56 h -3.83 v -21.03 h 67.59 v 21.03 z"
           id="path14"
           style="fill:#004c98;stroke-width:0px" />
        <path
           class="cls-60"
           d="m 2526.36,1208.26 c -0.91,0.04 -1.97,0.25 -3.17,0.63 -1.2,0.38 -2.31,0.88 -3.33,1.5 -1.28,0.8 -2.3,1.72 -3.09,2.76 -0.78,1.04 -1.47,2.49 -2.05,4.34 -2.59,8.41 -5.59,18.24 -9.01,29.48 -3.42,11.24 -7.12,23.21 -11.09,35.92 h -5.03 l -19.57,-59.71 -20.35,59.71 h -4.82 c -3.61,-12.75 -7.34,-25.98 -11.2,-39.69 -3.86,-13.71 -6.45,-22.9 -7.76,-27.56 -0.33,-1.13 -0.81,-2.13 -1.45,-3 -0.64,-0.87 -1.5,-1.67 -2.6,-2.4 -0.91,-0.62 -1.98,-1.08 -3.2,-1.39 -1.22,-0.31 -2.32,-0.5 -3.31,-0.57 v -3.88 h 31.6 v 3.88 c -2.77,0.15 -5.13,0.42 -7.08,0.82 -1.95,0.4 -2.92,1.07 -2.92,2.02 0,0.36 0.05,0.85 0.16,1.45 0.11,0.6 0.2,1.08 0.27,1.45 0.84,3.2 2.32,8.51 4.45,15.9 2.13,7.39 5.28,18.47 9.47,33.22 l 19.35,-57.64 h 5.35 l 19.53,58.87 c 2.63,-9.05 4.9,-16.96 6.8,-23.72 1.9,-6.77 3.47,-12.56 4.71,-17.38 0.88,-3.39 1.42,-5.72 1.64,-6.97 0.22,-1.26 0.33,-2.32 0.33,-3.2 0,-1.24 -0.85,-2.28 -2.54,-3.11 -1.69,-0.84 -4.43,-1.4 -8.22,-1.69 v -3.88 h 28.12 v 3.88 z"
           id="path15"
           style="fill:#004c98;stroke-width:0px" />
        <path
           class="cls-60"
           d="m 2637.44,1213.56 c 3.42,3.57 6.1,7.88 8.03,12.92 1.93,5.05 2.9,10.63 2.9,16.75 0,6.12 -0.98,11.75 -2.95,16.77 -1.97,5.03 -4.7,9.31 -8.2,12.84 -3.39,3.5 -7.32,6.19 -11.8,8.09 -4.48,1.89 -9.25,2.84 -14.31,2.84 -5.39,0 -10.37,-1.01 -14.94,-3.03 -4.57,-2.02 -8.5,-4.83 -11.78,-8.44 -3.28,-3.53 -5.85,-7.82 -7.73,-12.87 -1.88,-5.04 -2.81,-10.44 -2.81,-16.2 0,-6.3 0.98,-11.92 2.95,-16.86 1.97,-4.94 4.68,-9.21 8.14,-12.81 3.42,-3.57 7.4,-6.3 11.94,-8.2 4.54,-1.89 9.28,-2.84 14.23,-2.84 4.95,0 9.98,0.97 14.53,2.9 4.55,1.93 8.49,4.64 11.8,8.14 z m -8.14,54.97 c 2.04,-3.31 3.52,-7.07 4.45,-11.26 0.93,-4.19 1.39,-8.87 1.39,-14.04 0,-5.17 -0.52,-10.2 -1.56,-14.64 -1.04,-4.44 -2.56,-8.23 -4.56,-11.36 -2,-3.1 -4.52,-5.51 -7.54,-7.24 -3.02,-1.73 -6.48,-2.6 -10.38,-2.6 -4.37,0 -8.09,1 -11.15,3 -3.06,2 -5.55,4.68 -7.48,8.03 -1.82,3.21 -3.18,6.96 -4.07,11.26 -0.89,4.3 -1.34,8.82 -1.34,13.55 0,5.25 0.47,9.98 1.42,14.21 0.95,4.23 2.44,7.98 4.48,11.26 1.97,3.21 4.44,5.71 7.43,7.51 2.99,1.8 6.56,2.7 10.71,2.7 3.9,0 7.41,-0.91 10.54,-2.73 3.13,-1.82 5.68,-4.37 7.65,-7.65 z"
           id="path16"
           style="fill:#004c98;stroke-width:0px" />
        <path
           class="cls-60"
           d="m 2778.36,1281.91 h -20.88 c -4.62,-7.25 -8.8,-13.51 -12.53,-18.79 -3.73,-5.28 -7.78,-10.73 -12.14,-16.34 h -7.94 v 24.59 c 0,1.28 0.2,2.4 0.6,3.36 0.4,0.97 1.26,1.7 2.57,2.21 0.65,0.25 1.8,0.49 3.44,0.71 1.64,0.22 3.02,0.35 4.15,0.38 v 3.88 h -32.78 v -3.88 c 0.87,-0.07 2.14,-0.2 3.8,-0.38 1.66,-0.18 2.81,-0.42 3.47,-0.71 1.09,-0.47 1.89,-1.17 2.38,-2.08 0.49,-0.91 0.74,-2.08 0.74,-3.5 v -56.06 c 0,-1.27 -0.18,-2.4 -0.55,-3.39 -0.36,-0.98 -1.22,-1.73 -2.57,-2.24 -0.91,-0.33 -2.1,-0.63 -3.55,-0.9 -1.46,-0.27 -2.7,-0.45 -3.71,-0.52 v -3.88 h 35.79 c 3.28,0 6.36,0.34 9.23,1.01 2.88,0.67 5.48,1.76 7.81,3.25 2.26,1.46 4.06,3.36 5.41,5.71 1.35,2.35 2.02,5.18 2.02,8.5 0,2.99 -0.46,5.63 -1.37,7.92 -0.91,2.3 -2.26,4.28 -4.04,5.96 -1.64,1.57 -3.61,2.92 -5.9,4.07 -2.29,1.15 -4.83,2.12 -7.59,2.92 3.82,5.06 7,9.32 9.53,12.78 2.53,3.46 5.64,7.67 9.32,12.62 1.6,2.19 3.05,3.8 4.34,4.83 1.29,1.04 2.58,1.88 3.85,2.54 0.95,0.47 2.13,0.84 3.55,1.09 1.42,0.25 2.6,0.4 3.55,0.44 v 3.88 z m -28.74,-57.77 c 0,-4.69 -1.35,-8.41 -4.04,-11.16 -2.7,-2.74 -6.5,-4.12 -11.42,-4.12 h -9.29 v 33.22 h 7.16 c 5.03,0 9.21,-1.61 12.57,-4.83 3.35,-3.22 5.03,-7.59 5.03,-13.12 z"
           id="path17"
           style="fill:#004c98;stroke-width:0px" />
        <path
           class="cls-60"
           d="m 2901.36,1281.91 h -21.75 c -4.19,-6.48 -8.84,-12.92 -13.96,-19.31 -5.12,-6.39 -10.48,-12.59 -16.09,-18.6 h -1.42 v 26.99 c 0,1.2 0.23,2.28 0.68,3.22 0.46,0.95 1.28,1.71 2.49,2.29 0.58,0.26 1.67,0.57 3.25,0.93 1.59,0.36 2.91,0.57 3.96,0.6 v 3.88 h -32.18 v -3.88 c 0.84,-0.07 2.06,-0.18 3.66,-0.33 1.6,-0.15 2.73,-0.36 3.39,-0.66 1.09,-0.47 1.89,-1.17 2.38,-2.1 0.49,-0.93 0.74,-2.05 0.74,-3.36 v -55.95 c 0,-1.24 -0.21,-2.31 -0.63,-3.22 -0.42,-0.91 -1.25,-1.66 -2.49,-2.24 -0.98,-0.47 -2.15,-0.89 -3.5,-1.26 -1.35,-0.36 -2.53,-0.58 -3.55,-0.66 v -3.88 h 32.18 v 3.88 c -1.02,0.04 -2.29,0.2 -3.82,0.49 -1.53,0.29 -2.66,0.56 -3.39,0.82 -1.24,0.44 -2.08,1.17 -2.51,2.19 -0.44,1.02 -0.65,2.13 -0.65,3.33 v 26.77 h 1.09 c 3.28,-2.77 6.5,-5.65 9.67,-8.66 3.17,-3 6.05,-6 8.63,-8.99 2.88,-3.31 4.98,-5.96 6.31,-7.95 1.33,-1.99 1.99,-3.74 1.99,-5.27 0,-0.55 -0.34,-0.99 -1.01,-1.34 -0.67,-0.35 -1.45,-0.63 -2.32,-0.85 -1.02,-0.22 -1.93,-0.36 -2.73,-0.41 -0.8,-0.05 -1.46,-0.1 -1.97,-0.14 v -3.88 h 29.07 v 3.88 c -0.11,0 -0.35,0.02 -0.71,0.05 -0.36,0.04 -0.78,0.07 -1.26,0.11 -0.51,0.04 -1.02,0.11 -1.53,0.22 -0.51,0.11 -1.16,0.24 -1.96,0.38 -1.27,0.29 -2.59,0.76 -3.96,1.39 -1.37,0.64 -2.48,1.43 -3.36,2.38 -3.75,4.26 -7.66,8.67 -11.73,13.23 -4.07,4.56 -8.11,8.71 -12.11,12.46 5.54,6.26 10.13,11.65 13.76,16.17 3.63,4.51 7.48,9.34 11.57,14.47 1.56,1.97 3.12,3.54 4.68,4.73 1.56,1.18 2.9,2.07 4.02,2.65 0.94,0.47 2.12,0.84 3.54,1.09 1.41,0.25 2.59,0.4 3.54,0.44 v 3.88 z"
           id="path18"
           style="fill:#004c98;stroke-width:0px" />
      </g>
    </g>
  </g>
</svg>
